solid BGlassesWholeDesign
facet normal -7.049916206369061e-15 -1.0 1.7287415136289623e-29
  outer loop
    vertex 93.7120295402361 -104.6212955932789 17.420450926607963
    vertex 83.71202953060141 -104.62129559327887 -5.579549073390762
    vertex 93.71202954023605 -104.6212955932789 -5.579549073390776
  endloop
endfacet
facet normal -7.049916206369061e-15 -1.0 1.7287415136289623e-29
  outer loop
    vertex 83.71202953060141 -104.62129559327887 -5.579549073390762
    vertex 93.7120295402361 -104.6212955932789 17.420450926607963
    vertex 83.71202953060147 -104.62129559327887 17.42045092660797
  endloop
endfacet
facet normal -1.2260723837165418e-15 3.524958103184704e-16 -1.0
  outer loop
    vertex 83.71202953060147 -100.6212955932784 -5.579549073390762
    vertex 93.71202954023605 -104.6212955932789 -5.579549073390776
    vertex 83.71202953060141 -104.62129559327887 -5.579549073390762
  endloop
endfacet
facet normal -1.2260723837165418e-15 3.524958103184704e-16 -1.0
  outer loop
    vertex 93.71202954023605 -104.6212955932789 -5.579549073390776
    vertex 83.71202953060147 -100.6212955932784 -5.579549073390762
    vertex 93.7120295402361 -100.62129559327852 -5.579549073390774
  endloop
endfacet
facet normal 1.1398601353088143e-14 1.0 -7.88570993940407e-29
  outer loop
    vertex 83.71202953060147 -100.6212955932784 -5.579549073390762
    vertex 93.71202954023605 -100.62129559327855 -3.5795490733941855
    vertex 93.7120295402361 -100.62129559327852 -5.579549073390774
  endloop
endfacet
facet normal 1.1398601353088143e-14 1.0 -7.88570993940407e-29
  outer loop
    vertex 93.71202954023605 -100.62129559327855 -3.5795490733941855
    vertex 83.71202953060147 -100.6212955932784 -5.579549073390762
    vertex 83.71202953060147 -100.6212955932784 17.42045092660797
  endloop
endfacet
facet normal 1.1398601353088143e-14 1.0 -7.88570993940407e-29
  outer loop
    vertex 93.71202954023605 -100.62129559327855 -3.5795490733941855
    vertex 83.71202953060147 -100.6212955932784 17.42045092660797
    vertex 93.7120295402361 -100.62129559327855 15.420450926607764
  endloop
endfacet
facet normal 1.1398601353088143e-14 1.0 -7.88570993940407e-29
  outer loop
    vertex 93.71202954023605 -100.62129559327855 -3.5795490733941855
    vertex 93.7120295402361 -100.62129559327855 15.420450926607764
    vertex 98.71202954023609 -100.62129559327857 15.42045092660774
  endloop
endfacet
facet normal 1.1398601353088143e-14 1.0 -7.88570993940407e-29
  outer loop
    vertex 93.7120295402361 -100.62129559327855 15.420450926607764
    vertex 83.71202953060147 -100.6212955932784 17.42045092660797
    vertex 93.7120295402361 -100.62129559327852 17.420450926607963
  endloop
endfacet
facet normal 1.1398601353088143e-14 1.0 -7.88570993940407e-29
  outer loop
    vertex 98.71202954023609 -100.62129559327857 15.42045092660774
    vertex 98.71202954023602 -100.62129559327857 -3.5795490733941895
    vertex 93.71202954023605 -100.62129559327855 -3.5795490733941855
  endloop
endfacet
facet normal 1.2260723837165442e-15 0.0 1.0
  outer loop
    vertex 93.7120295402361 -104.6212955932789 17.420450926607963
    vertex 83.71202953060147 -100.6212955932784 17.42045092660797
    vertex 83.71202953060147 -104.62129559327887 17.42045092660797
  endloop
endfacet
facet normal 1.2260723837165442e-15 0.0 1.0
  outer loop
    vertex 83.71202953060147 -100.6212955932784 17.42045092660797
    vertex 93.7120295402361 -104.6212955932789 17.420450926607963
    vertex 93.7120295402361 -100.62129559327852 17.420450926607963
  endloop
endfacet
facet normal -1.0 7.049916206369061e-15 1.2260723837165442e-15
  outer loop
    vertex 83.71202953060147 -100.6212955932784 17.42045092660797
    vertex 83.71202953060141 -104.62129559327887 -5.579549073390762
    vertex 83.71202953060147 -104.62129559327887 17.42045092660797
  endloop
endfacet
facet normal -1.0 7.049916206369061e-15 1.2260723837165442e-15
  outer loop
    vertex 83.71202953060141 -104.62129559327887 -5.579549073390762
    vertex 83.71202953060147 -100.6212955932784 17.42045092660797
    vertex 83.71202953060147 -100.6212955932784 -5.579549073390762
  endloop
endfacet
facet normal 1.0 -2.8199664825480998e-15 -1.818085386553687e-15
  outer loop
    vertex 93.71202954023605 -104.6212955932789 -5.579549073390776
    vertex 93.71202954023605 -103.12129559327886 -3.5795490733941855
    vertex 93.7120295402361 -104.6212955932789 17.420450926607963
  endloop
endfacet
facet normal 1.0 -2.8199664825480998e-15 -1.818085386553687e-15
  outer loop
    vertex 93.71202954023605 -103.12129559327886 -3.5795490733941855
    vertex 93.71202954023605 -104.6212955932789 -5.579549073390776
    vertex 93.7120295402361 -100.62129559327852 -5.579549073390774
  endloop
endfacet
facet normal 1.0 -2.8199664825480998e-15 -1.818085386553687e-15
  outer loop
    vertex 93.71202954023605 -103.12129559327886 -3.5795490733941855
    vertex 93.7120295402361 -100.62129559327852 -5.579549073390774
    vertex 93.71202954023605 -100.62129559327855 -3.5795490733941855
  endloop
endfacet
facet normal 1.0 -2.8199664825480998e-15 -1.818085386553687e-15
  outer loop
    vertex 93.7120295402361 -104.6212955932789 17.420450926607963
    vertex 93.71202954023605 -103.12129559327886 15.420450926607764
    vertex 93.7120295402361 -100.62129559327852 17.420450926607963
  endloop
endfacet
facet normal 1.0 -2.8199664825480998e-15 -1.818085386553687e-15
  outer loop
    vertex 93.71202954023605 -103.12129559327886 15.420450926607764
    vertex 93.7120295402361 -104.6212955932789 17.420450926607963
    vertex 93.71202954023605 -103.12129559327886 -3.5795490733941855
  endloop
endfacet
facet normal 1.0 -2.8199664825480998e-15 -1.818085386553687e-15
  outer loop
    vertex 93.7120295402361 -100.62129559327852 17.420450926607963
    vertex 93.71202954023605 -103.12129559327886 15.420450926607764
    vertex 93.7120295402361 -100.62129559327855 15.420450926607764
  endloop
endfacet
facet normal 1.0 -1.3535839116228222e-14 -1.6919798895285731e-15
  outer loop
    vertex 98.71202954023602 -100.62129559327857 -3.5795490733941895
    vertex 98.71202954023602 -103.12129559327906 15.42045092660774
    vertex 98.71202954023602 -103.12129559327906 -3.5795490733941895
  endloop
endfacet
facet normal 1.0 -1.3535839116228222e-14 -1.6919798895285731e-15
  outer loop
    vertex 98.71202954023602 -103.12129559327906 15.42045092660774
    vertex 98.71202954023602 -100.62129559327857 -3.5795490733941895
    vertex 98.71202954023609 -100.62129559327857 15.42045092660774
  endloop
endfacet
facet normal -8.459899447643727e-16 -5.546667146509243e-32 -1.0
  outer loop
    vertex 98.71202954023602 -100.62129559327857 -3.5795490733941895
    vertex 93.71202954023605 -103.12129559327886 -3.5795490733941855
    vertex 93.71202954023605 -100.62129559327855 -3.5795490733941855
  endloop
endfacet
facet normal -8.459899447643727e-16 -5.546667146509243e-32 -1.0
  outer loop
    vertex 93.71202954023605 -103.12129559327886 -3.5795490733941855
    vertex 98.71202954023602 -100.62129559327857 -3.5795490733941895
    vertex 98.71202954023602 -103.12129559327906 -3.5795490733941895
  endloop
endfacet
facet normal -1.3535839116228225e-14 -1.0 0.0
  outer loop
    vertex 98.71202954023602 -103.12129559327906 15.42045092660774
    vertex 93.71202954023605 -103.12129559327886 -3.5795490733941855
    vertex 98.71202954023602 -103.12129559327906 -3.5795490733941895
  endloop
endfacet
facet normal -1.3535839116228225e-14 -1.0 0.0
  outer loop
    vertex 93.71202954023605 -103.12129559327886 -3.5795490733941855
    vertex 98.71202954023602 -103.12129559327906 15.42045092660774
    vertex 93.71202954023605 -103.12129559327886 15.420450926607764
  endloop
endfacet
facet normal 5.075939668586236e-15 -1.3737126349610123e-28 1.0
  outer loop
    vertex 98.71202954023602 -103.12129559327906 15.42045092660774
    vertex 93.7120295402361 -100.62129559327855 15.420450926607764
    vertex 93.71202954023605 -103.12129559327886 15.420450926607764
  endloop
endfacet
facet normal 5.075939668586236e-15 -1.3737126349610123e-28 1.0
  outer loop
    vertex 93.7120295402361 -100.62129559327855 15.420450926607764
    vertex 98.71202954023602 -103.12129559327906 15.42045092660774
    vertex 98.71202954023609 -100.62129559327857 15.42045092660774
  endloop
endfacet
endsolid BGlassesWholeDesign
