solid BGlassesWholeDesign
facet normal -0.8944271909999423 -0.4472135954999052 4.773585897988329e-15
  outer loop
    vertex 103.71202952709588 -156.621295588155 13.670450954388699
    vertex 102.21202952709652 -153.62129558815602 -1.8295490456112986
    vertex 103.71202952709646 -156.62129558815636 -1.8295490456110879
  endloop
endfacet
facet normal -0.8944271909999423 -0.4472135954999052 4.773585897988329e-15
  outer loop
    vertex 102.21202952709652 -153.62129558815602 -1.8295490456112986
    vertex 103.71202952709588 -156.621295588155 13.670450954388699
    vertex 102.21202952709615 -153.62129558815508 13.67045095438863
  endloop
endfacet
facet normal 2.5539319087225525e-14 -5.320691476505719e-15 -1.0
  outer loop
    vertex 136.21202952709643 -150.62129558815533 8.920450954391871
    vertex 135.21202952709643 -151.62129558815533 8.920450954391871
    vertex 135.21202952709643 -150.62129558815533 8.920450954391871
  endloop
endfacet
facet normal 2.5539319087225525e-14 -5.320691476505719e-15 -1.0
  outer loop
    vertex 135.21202952709643 -151.62129558815533 8.920450954391871
    vertex 136.21202952709643 -150.62129558815533 8.920450954391871
    vertex 135.2120295270965 -155.62129558815508 8.920450954391871
  endloop
endfacet
facet normal 2.5539319087225525e-14 -5.320691476505719e-15 -1.0
  outer loop
    vertex 135.2120295270965 -155.62129558815508 8.920450954391871
    vertex 136.21202952709643 -150.62129558815533 8.920450954391871
    vertex 135.2120295270965 -156.62129558815508 8.92045095439191
  endloop
endfacet
facet normal 2.5539319087225525e-14 -5.320691476505719e-15 -1.0
  outer loop
    vertex 135.2120295270965 -156.62129558815508 8.92045095439191
    vertex 136.21202952709643 -150.62129558815533 8.920450954391871
    vertex 136.2120295270964 -156.62129558815533 8.920450954391967
  endloop
endfacet
facet normal -1.070877627149401e-15 1.2253226202533038e-14 1.0
  outer loop
    vertex 119.21202952709643 -156.62129558815553 2.9204509543919124
    vertex 121.2120295270965 -155.62129558815528 2.920450954391825
    vertex 119.21202952709643 -153.12129558815553 2.920450954391825
  endloop
endfacet
facet normal -1.070877627149401e-15 1.2253226202533038e-14 1.0
  outer loop
    vertex 121.2120295270965 -155.62129558815528 2.920450954391825
    vertex 119.21202952709643 -156.62129558815553 2.9204509543919124
    vertex 136.2120295270964 -156.62129558815533 2.920450954391921
  endloop
endfacet
facet normal -1.070877627149401e-15 1.2253226202533038e-14 1.0
  outer loop
    vertex 119.21202952709643 -153.12129558815553 2.920450954391825
    vertex 121.2120295270965 -155.62129558815528 2.920450954391825
    vertex 121.21202952709646 -150.62129558815545 2.920450954391777
  endloop
endfacet
facet normal -1.070877627149401e-15 1.2253226202533038e-14 1.0
  outer loop
    vertex 121.2120295270965 -155.62129558815528 2.920450954391825
    vertex 136.2120295270964 -156.62129558815533 2.920450954391921
    vertex 135.2120295270965 -155.62129558815508 2.920450954391828
  endloop
endfacet
facet normal -1.070877627149401e-15 1.2253226202533038e-14 1.0
  outer loop
    vertex 135.2120295270965 -155.62129558815508 2.920450954391828
    vertex 135.21202952709643 -150.62129558815533 2.920450954391828
    vertex 135.21202952709643 -151.62129558815533 2.920450954391828
  endloop
endfacet
facet normal -1.070877627149401e-15 1.2253226202533038e-14 1.0
  outer loop
    vertex 135.21202952709643 -150.62129558815533 2.920450954391828
    vertex 135.2120295270965 -155.62129558815508 2.920450954391828
    vertex 136.21202952709643 -150.62129558815533 2.920450954391828
  endloop
endfacet
facet normal -1.070877627149401e-15 1.2253226202533038e-14 1.0
  outer loop
    vertex 136.21202952709643 -150.62129558815533 2.920450954391828
    vertex 135.2120295270965 -155.62129558815508 2.920450954391828
    vertex 136.2120295270964 -156.62129558815533 2.920450954391921
  endloop
endfacet
facet normal -1.070877627149401e-15 1.2253226202533038e-14 1.0
  outer loop
    vertex 119.21202952709643 -153.12129558815553 2.920450954391825
    vertex 109.21202952709646 -150.62129558815545 2.920450954391777
    vertex 109.21202952709643 -153.12129558815545 2.920450954391825
  endloop
endfacet
facet normal -1.070877627149401e-15 1.2253226202533038e-14 1.0
  outer loop
    vertex 109.21202952709646 -150.62129558815545 2.920450954391777
    vertex 119.21202952709643 -153.12129558815553 2.920450954391825
    vertex 121.21202952709646 -150.62129558815545 2.920450954391777
  endloop
endfacet
facet normal -1.9807022829829894e-14 4.113642153676904e-14 1.0
  outer loop
    vertex 136.2219717509463 -156.6212955881549 17.42045095438917
    vertex 121.21202952709628 -150.621295588155 17.420450954388368
    vertex 121.21202952709625 -156.6212955881553 17.42045095438855
  endloop
endfacet
facet normal -1.9807022829829894e-14 4.113642153676904e-14 1.0
  outer loop
    vertex 121.21202952709628 -150.621295588155 17.420450954388368
    vertex 136.2219717509463 -156.6212955881549 17.42045095438917
    vertex 136.22197175094638 -150.6212955881548 17.42045095438899
  endloop
endfacet
facet normal 1.0 1.1279865930192312e-14 0.0
  outer loop
    vertex 135.21202952709643 -151.62129558815533 2.920450954391828
    vertex 135.2120295270965 -155.62129558815508 8.920450954391871
    vertex 135.2120295270965 -155.62129558815508 2.920450954391828
  endloop
endfacet
facet normal 1.0 1.1279865930192312e-14 0.0
  outer loop
    vertex 135.2120295270965 -155.62129558815508 8.920450954391871
    vertex 135.21202952709643 -151.62129558815533 2.920450954391828
    vertex 135.21202952709643 -151.62129558815533 8.920450954391871
  endloop
endfacet
facet normal 0.9807852804032312 -8.365910604986094e-16 -0.19509032201612528
  outer loop
    vertex 142.76906526885432 -150.62129558815542 2.555803368059077
    vertex 143.10081272495592 -156.6212955881554 4.223610455531389
    vertex 142.76906526885426 -156.62129558815548 2.555803368059294
  endloop
endfacet
facet normal 0.9807852804032312 -8.365910604986094e-16 -0.19509032201612528
  outer loop
    vertex 143.10081272495592 -156.6212955881554 4.223610455531389
    vertex 142.76906526885432 -150.62129558815542 2.555803368059077
    vertex 143.10081272495597 -150.6212955881554 4.223610455531175
  endloop
endfacet
facet normal -1.0 -1.75112094320095e-14 -1.6067634402892896e-14
  outer loop
    vertex 121.21202952709643 -152.3212955881548 -1.8295490456136667
    vertex 121.2120295270963 -152.32129558815552 -2.9170490456140175
    vertex 121.21202952709646 -156.62129558815514 -1.8295490456130152
  endloop
endfacet
facet normal -1.0 -1.75112094320095e-14 -1.6067634402892896e-14
  outer loop
    vertex 121.21202952709646 -156.62129558815514 -1.8295490456130152
    vertex 121.21202952709643 -150.62129558815576 -5.579549045611793
    vertex 121.2120295270965 -156.62129558815647 -5.579549045611547
  endloop
endfacet
facet normal -1.0 -1.75112094320095e-14 -1.6067634402892896e-14
  outer loop
    vertex 121.21202952709643 -150.62129558815576 -5.579549045611793
    vertex 121.21202952709646 -156.62129558815514 -1.8295490456130152
    vertex 121.2120295270963 -152.32129558815552 -2.9170490456140175
  endloop
endfacet
facet normal -1.0 -1.75112094320095e-14 -1.6067634402892896e-14
  outer loop
    vertex 121.21202952709643 -150.62129558815576 -5.579549045611793
    vertex 121.2120295270963 -152.32129558815552 -2.9170490456140175
    vertex 121.2120295270963 -151.8962955881557 -3.2795490456140453
  endloop
endfacet
facet normal -1.0 -1.75112094320095e-14 -1.6067634402892896e-14
  outer loop
    vertex 121.21202952709643 -150.62129558815576 -5.579549045611793
    vertex 121.2120295270963 -151.8962955881557 -3.2795490456140453
    vertex 121.21202952709639 -150.62129558815565 -3.2795490456137837
  endloop
endfacet
facet normal 0.44228869021899864 4.013591760155525e-14 0.8968727415326896
  outer loop
    vertex 136.71202952709635 -156.6212955881549 17.178781203589704
    vertex 136.22197175094638 -150.6212955881548 17.42045095438899
    vertex 136.2219717509463 -156.6212955881549 17.42045095438917
  endloop
endfacet
facet normal 0.44228869021899864 4.013591760155525e-14 0.8968727415326896
  outer loop
    vertex 136.22197175094638 -150.6212955881548 17.42045095438899
    vertex 136.71202952709635 -156.6212955881549 17.178781203589704
    vertex 136.71202952709643 -150.6212955881548 17.178781203589523
  endloop
endfacet
facet normal -1.0 4.511946372076644e-15 -6.897325834984855e-32
  outer loop
    vertex 136.21202952709643 -150.62129558815533 8.920450954391871
    vertex 136.2120295270964 -156.62129558815533 2.920450954391921
    vertex 136.2120295270964 -156.62129558815533 8.920450954391967
  endloop
endfacet
facet normal -1.0 4.511946372076644e-15 -6.897325834984855e-32
  outer loop
    vertex 136.2120295270964 -156.62129558815533 2.920450954391921
    vertex 136.21202952709643 -150.62129558815533 8.920450954391871
    vertex 136.21202952709643 -150.62129558815533 2.920450954391828
  endloop
endfacet
facet normal 0.5555702330195963 -3.013159791781485e-14 -0.8314696123025492
  outer loop
    vertex 138.12592810420983 -150.62129558815576 -4.39314246939421
    vertex 136.71202952709643 -156.62129558815624 -5.33787929480561
    vertex 136.71202952709643 -150.62129558815576 -5.337879294805856
  endloop
endfacet
facet normal 0.5555702330195963 -3.013159791781485e-14 -0.8314696123025492
  outer loop
    vertex 136.71202952709643 -156.62129558815624 -5.33787929480561
    vertex 138.12592810420983 -150.62129558815576 -4.39314246939421
    vertex 138.12592810420983 -156.62129558815622 -4.393142469393963
  endloop
endfacet
facet normal 0.6593458151000731 -2.6095283121700305e-14 -0.7518398074789739
  outer loop
    vertex 139.40441768252157 -150.6212955881557 -3.2719372010332677
    vertex 138.12592810420983 -156.62129558815622 -4.393142469393963
    vertex 138.12592810420983 -150.62129558815576 -4.39314246939421
  endloop
endfacet
facet normal 0.6593458151000731 -2.6095283121700305e-14 -0.7518398074789739
  outer loop
    vertex 138.12592810420983 -156.62129558815622 -4.393142469393963
    vertex 139.40441768252157 -150.6212955881557 -3.2719372010332677
    vertex 139.40441768252157 -156.62129558815616 -3.2719372010330217
  endloop
endfacet
facet normal 0.0 0.0 -1.0
  outer loop
    vertex 135.21202952709643 -150.62129558815533 10.92045095439185
    vertex 125.21202952709643 -151.62129558815533 10.92045095439185
    vertex 125.21202952709643 -150.62129558815533 10.92045095439185
  endloop
endfacet
facet normal 0.0 0.0 -1.0
  outer loop
    vertex 125.21202952709643 -151.62129558815533 10.92045095439185
    vertex 135.21202952709643 -150.62129558815533 10.92045095439185
    vertex 135.21202952709643 -151.62129558815533 10.92045095439185
  endloop
endfacet
facet normal -1.0 -0.0 -0.0
  outer loop
    vertex 135.21202952709643 -150.62129558815533 10.92045095439185
    vertex 135.21202952709643 -151.62129558815533 8.920450954391871
    vertex 135.21202952709643 -151.62129558815533 10.92045095439185
  endloop
endfacet
facet normal -1.0 -0.0 -0.0
  outer loop
    vertex 135.21202952709643 -151.62129558815533 8.920450954391871
    vertex 135.21202952709643 -150.62129558815533 10.92045095439185
    vertex 135.21202952709643 -150.62129558815533 8.920450954391871
  endloop
endfacet
facet normal 0.0 1.0 0.0
  outer loop
    vertex 125.21202952709643 -151.62129558815533 10.92045095439185
    vertex 135.21202952709643 -151.62129558815533 0.9204509543918484
    vertex 125.21202952709643 -151.62129558815533 0.9204509543918484
  endloop
endfacet
facet normal 0.0 1.0 0.0
  outer loop
    vertex 135.21202952709643 -151.62129558815533 0.9204509543918484
    vertex 125.21202952709643 -151.62129558815533 10.92045095439185
    vertex 135.21202952709643 -151.62129558815533 2.920450954391828
  endloop
endfacet
facet normal 0.0 1.0 0.0
  outer loop
    vertex 135.21202952709643 -151.62129558815533 2.920450954391828
    vertex 125.21202952709643 -151.62129558815533 10.92045095439185
    vertex 135.21202952709643 -151.62129558815533 8.920450954391871
  endloop
endfacet
facet normal 0.0 1.0 0.0
  outer loop
    vertex 135.21202952709643 -151.62129558815533 8.920450954391871
    vertex 125.21202952709643 -151.62129558815533 10.92045095439185
    vertex 135.21202952709643 -151.62129558815533 10.92045095439185
  endloop
endfacet
facet normal 1.0 -2.2559731860382892e-14 -6.767919558103332e-14
  outer loop
    vertex 102.21202952709636 -150.62129558815553 -3.329549045613922
    vertex 102.21202952709642 -152.12129558815556 -1.8295490456113683
    vertex 102.21202952709636 -152.12129558815556 -3.329549045613922
  endloop
endfacet
facet normal 1.0 -2.2559731860382892e-14 -6.767919558103332e-14
  outer loop
    vertex 102.21202952709642 -152.12129558815556 -1.8295490456113683
    vertex 102.21202952709636 -150.62129558815553 -3.329549045613922
    vertex 102.21202952709649 -150.62129558815542 -1.8295490456113683
  endloop
endfacet
facet normal 0.0 0.0 -1.0
  outer loop
    vertex 102.21202952709636 -150.62129558815553 -3.329549045613922
    vertex 100.71202952709633 -152.12129558815556 -3.329549045613922
    vertex 100.71202952709633 -150.62129558815553 -3.329549045613922
  endloop
endfacet
facet normal 0.0 0.0 -1.0
  outer loop
    vertex 100.71202952709633 -152.12129558815556 -3.329549045613922
    vertex 102.21202952709636 -150.62129558815553 -3.329549045613922
    vertex 102.21202952709636 -152.12129558815556 -3.329549045613922
  endloop
endfacet
facet normal -4.511946372076983e-14 1.0 -3.606034220162344e-28
  outer loop
    vertex 100.71202952709633 -150.62129558815553 15.170450954388718
    vertex 102.21202952709636 -150.62129558815553 -3.329549045613922
    vertex 100.71202952709633 -150.62129558815553 -3.329549045613922
  endloop
endfacet
facet normal -4.511946372076983e-14 1.0 -3.606034220162344e-28
  outer loop
    vertex 102.21202952709636 -150.62129558815553 -3.329549045613922
    vertex 100.71202952709633 -150.62129558815553 15.170450954388718
    vertex 102.21202952709649 -150.62129558815542 -1.8295490456113683
  endloop
endfacet
facet normal -4.511946372076983e-14 1.0 -3.606034220162344e-28
  outer loop
    vertex 102.21202952709649 -150.62129558815542 -1.8295490456113683
    vertex 100.71202952709633 -150.62129558815553 15.170450954388718
    vertex 102.21202952709649 -150.62129558815542 13.67045095438863
  endloop
endfacet
facet normal -4.511946372076983e-14 1.0 -3.606034220162344e-28
  outer loop
    vertex 102.21202952709649 -150.62129558815542 13.67045095438863
    vertex 100.71202952709633 -150.62129558815553 15.170450954388718
    vertex 102.21202952709636 -150.62129558815553 15.170450954388718
  endloop
endfacet
facet normal 0.0 0.0 1.0
  outer loop
    vertex 102.21202952709636 -152.12129558815556 15.170450954388718
    vertex 100.71202952709633 -150.62129558815553 15.170450954388718
    vertex 100.71202952709633 -152.12129558815556 15.170450954388718
  endloop
endfacet
facet normal 0.0 0.0 1.0
  outer loop
    vertex 100.71202952709633 -150.62129558815553 15.170450954388718
    vertex 102.21202952709636 -152.12129558815556 15.170450954388718
    vertex 102.21202952709636 -150.62129558815553 15.170450954388718
  endloop
endfacet
facet normal 1.0 -2.255973186038289e-14 6.767919558114446e-14
  outer loop
    vertex 102.21202952709649 -150.62129558815542 13.67045095438863
    vertex 102.21202952709636 -152.12129558815556 15.170450954388718
    vertex 102.21202952709642 -152.12129558815556 13.67045095438863
  endloop
endfacet
facet normal 1.0 -2.255973186038289e-14 6.767919558114446e-14
  outer loop
    vertex 102.21202952709636 -152.12129558815556 15.170450954388718
    vertex 102.21202952709649 -150.62129558815542 13.67045095438863
    vertex 102.21202952709636 -150.62129558815553 15.170450954388718
  endloop
endfacet
facet normal -1.409983235832103e-15 -1.0 -3.8537519331505415e-09
  outer loop
    vertex 121.21202952709636 -152.32129558815575 13.6704509543888
    vertex 113.21202952709638 -152.3212955923467 14.757950954388777
    vertex 113.21202952709638 -152.32129558815572 13.670450954388777
  endloop
endfacet
facet normal -1.409983235832103e-15 -1.0 -3.8537519331505415e-09
  outer loop
    vertex 113.21202952709638 -152.3212955923467 14.757950954388777
    vertex 121.21202952709636 -152.32129558815575 13.6704509543888
    vertex 121.21202952709635 -152.3212955923467 14.757950954388777
  endloop
endfacet
facet normal -1.1005762161332028e-15 1.0 -2.9970334752800446e-14
  outer loop
    vertex 121.21202952709639 -150.62129558815565 -3.2795490456137837
    vertex 136.22197175094328 -150.6212955881558 -5.579549045606858
    vertex 121.21202952709643 -150.62129558815576 -5.579549045611793
  endloop
endfacet
facet normal -1.1005762161332028e-15 1.0 -2.9970334752800446e-14
  outer loop
    vertex 136.22197175094328 -150.6212955881558 -5.579549045606858
    vertex 121.21202952709639 -150.62129558815565 -3.2795490456137837
    vertex 136.71202952709643 -150.62129558815576 -5.337879294805856
  endloop
endfacet
facet normal -1.1005762161332028e-15 1.0 -2.9970334752800446e-14
  outer loop
    vertex 136.71202952709643 -150.62129558815576 -5.337879294805856
    vertex 121.21202952709639 -150.62129558815565 -3.2795490456137837
    vertex 138.12592810420983 -150.62129558815576 -4.39314246939421
  endloop
endfacet
facet normal -1.1005762161332028e-15 1.0 -2.9970334752800446e-14
  outer loop
    vertex 138.12592810420983 -150.62129558815576 -4.39314246939421
    vertex 121.21202952709639 -150.62129558815565 -3.2795490456137837
    vertex 139.40441768252157 -150.6212955881557 -3.2719372010332677
  endloop
endfacet
facet normal -1.1005762161332028e-15 1.0 -2.9970334752800446e-14
  outer loop
    vertex 139.40441768252157 -150.6212955881557 -3.2719372010332677
    vertex 121.21202952709639 -150.62129558815565 -3.2795490456137837
    vertex 113.21202952709616 -150.62129558815553 -3.2795490456137064
  endloop
endfacet
facet normal -1.1005762161332028e-15 1.0 -2.9970334752800446e-14
  outer loop
    vertex 139.40441768252157 -150.6212955881557 -3.2719372010332677
    vertex 113.21202952709616 -150.62129558815553 -3.2795490456137064
    vertex 113.21202952709616 -150.6212955881547 -1.8295490456137358
  endloop
endfacet
facet normal -1.1005762161332028e-15 1.0 -2.9970334752800446e-14
  outer loop
    vertex 139.40441768252157 -150.6212955881557 -3.2719372010332677
    vertex 113.21202952709616 -150.6212955881547 -1.8295490456137358
    vertex 140.5256229508825 -150.62129558815562 -1.9934476227215197
  endloop
endfacet
facet normal -1.1005762161332028e-15 1.0 -2.9970334752800446e-14
  outer loop
    vertex 140.5256229508825 -150.62129558815562 -1.9934476227215197
    vertex 113.21202952709616 -150.6212955881547 -1.8295490456137358
    vertex 141.47035977629412 -150.62129558815556 -0.5795490456081502
  endloop
endfacet
facet normal -1.1005762161332028e-15 1.0 -2.9970334752800446e-14
  outer loop
    vertex 141.47035977629412 -150.62129558815556 -0.5795490456081502
    vertex 113.21202952709616 -150.6212955881547 -1.8295490456137358
    vertex 102.21202952709649 -150.62129558815542 -1.8295490456113683
  endloop
endfacet
facet normal -1.1005762161332028e-15 1.0 -2.9970334752800446e-14
  outer loop
    vertex 141.47035977629412 -150.62129558815556 -0.5795490456081502
    vertex 102.21202952709649 -150.62129558815542 -1.8295490456113683
    vertex 125.21202952709643 -150.62129558815533 0.9204509543918484
  endloop
endfacet
facet normal -1.1005762161332028e-15 1.0 -2.9970334752800446e-14
  outer loop
    vertex 125.21202952709643 -150.62129558815533 0.9204509543918484
    vertex 102.21202952709649 -150.62129558815542 -1.8295490456113683
    vertex 109.21202952709646 -150.62129558815545 2.920450954391777
  endloop
endfacet
facet normal -1.1005762161332028e-15 1.0 -2.9970334752800446e-14
  outer loop
    vertex 109.21202952709646 -150.62129558815545 2.920450954391777
    vertex 102.21202952709649 -150.62129558815542 -1.8295490456113683
    vertex 102.21202952709649 -150.62129558815542 13.67045095438863
  endloop
endfacet
facet normal -1.1005762161332028e-15 1.0 -2.9970334752800446e-14
  outer loop
    vertex 109.21202952709646 -150.62129558815545 2.920450954391777
    vertex 102.21202952709649 -150.62129558815542 13.67045095438863
    vertex 109.21202952709646 -150.6212955881553 8.920450954391825
  endloop
endfacet
facet normal -1.1005762161332028e-15 1.0 -2.9970334752800446e-14
  outer loop
    vertex 109.21202952709646 -150.6212955881553 8.920450954391825
    vertex 102.21202952709649 -150.62129558815542 13.67045095438863
    vertex 121.21202952709646 -150.62129558815545 8.920450954391825
  endloop
endfacet
facet normal -1.1005762161332028e-15 1.0 -2.9970334752800446e-14
  outer loop
    vertex 121.21202952709646 -150.62129558815545 8.920450954391825
    vertex 102.21202952709649 -150.62129558815542 13.67045095438863
    vertex 125.21202952709643 -150.62129558815533 10.92045095439185
  endloop
endfacet
facet normal -1.1005762161332028e-15 1.0 -2.9970334752800446e-14
  outer loop
    vertex 125.21202952709643 -150.62129558815533 10.92045095439185
    vertex 102.21202952709649 -150.62129558815542 13.67045095438863
    vertex 135.21202952709643 -150.62129558815533 10.92045095439185
  endloop
endfacet
facet normal -1.1005762161332028e-15 1.0 -2.9970334752800446e-14
  outer loop
    vertex 135.21202952709643 -150.62129558815533 10.92045095439185
    vertex 102.21202952709649 -150.62129558815542 13.67045095438863
    vertex 141.47035977629412 -150.62129558815502 12.420450954391827
  endloop
endfacet
facet normal -1.1005762161332028e-15 1.0 -2.9970334752800446e-14
  outer loop
    vertex 141.47035977629412 -150.62129558815502 12.420450954391827
    vertex 102.21202952709649 -150.62129558815542 13.67045095438863
    vertex 113.21202952709638 -150.62129558815528 13.670450954388787
  endloop
endfacet
facet normal -1.1005762161332028e-15 1.0 -2.9970334752800446e-14
  outer loop
    vertex 141.47035977629412 -150.62129558815502 12.420450954391827
    vertex 113.21202952709638 -150.62129558815528 13.670450954388787
    vertex 140.52562295088248 -150.621295588155 13.834349531505193
  endloop
endfacet
facet normal -1.1005762161332028e-15 1.0 -2.9970334752800446e-14
  outer loop
    vertex 140.52562295088248 -150.621295588155 13.834349531505193
    vertex 113.21202952709638 -150.62129558815528 13.670450954388787
    vertex 113.21202952709638 -150.62129559374324 15.120450965564649
  endloop
endfacet
facet normal -1.1005762161332028e-15 1.0 -2.9970334752800446e-14
  outer loop
    vertex 140.52562295088248 -150.621295588155 13.834349531505193
    vertex 113.21202952709638 -150.62129559374324 15.120450965564649
    vertex 139.40441768252154 -150.62129558815488 15.112839109816937
  endloop
endfacet
facet normal -1.1005762161332028e-15 1.0 -2.9970334752800446e-14
  outer loop
    vertex 139.40441768252154 -150.62129558815488 15.112839109816937
    vertex 113.21202952709638 -150.62129559374324 15.120450965564649
    vertex 121.21202952709636 -150.62129559374327 15.12045096556467
  endloop
endfacet
facet normal -1.1005762161332028e-15 1.0 -2.9970334752800446e-14
  outer loop
    vertex 139.40441768252154 -150.62129558815488 15.112839109816937
    vertex 121.21202952709636 -150.62129559374327 15.12045096556467
    vertex 138.12592810420978 -150.62129558815485 16.234044378177874
  endloop
endfacet
facet normal -1.1005762161332028e-15 1.0 -2.9970334752800446e-14
  outer loop
    vertex 138.12592810420978 -150.62129558815485 16.234044378177874
    vertex 121.21202952709636 -150.62129559374327 15.12045096556467
    vertex 121.21202952709628 -150.621295588155 17.420450954388368
  endloop
endfacet
facet normal -1.1005762161332028e-15 1.0 -2.9970334752800446e-14
  outer loop
    vertex 138.12592810420978 -150.62129558815485 16.234044378177874
    vertex 121.21202952709628 -150.621295588155 17.420450954388368
    vertex 136.71202952709643 -150.6212955881548 17.178781203589523
  endloop
endfacet
facet normal -1.1005762161332028e-15 1.0 -2.9970334752800446e-14
  outer loop
    vertex 136.71202952709643 -150.6212955881548 17.178781203589523
    vertex 121.21202952709628 -150.621295588155 17.420450954388368
    vertex 136.22197175094638 -150.6212955881548 17.42045095438899
  endloop
endfacet
facet normal -1.1005762161332028e-15 1.0 -2.9970334752800446e-14
  outer loop
    vertex 135.21202952709643 -150.62129558815533 10.92045095439185
    vertex 136.21202952709643 -150.62129558815533 8.920450954391871
    vertex 135.21202952709643 -150.62129558815533 8.920450954391871
  endloop
endfacet
facet normal -1.1005762161332028e-15 1.0 -2.9970334752800446e-14
  outer loop
    vertex 136.21202952709643 -150.62129558815533 8.920450954391871
    vertex 135.21202952709643 -150.62129558815533 10.92045095439185
    vertex 140.5190302595171 -150.62129558815522 9.220451145129665
  endloop
endfacet
facet normal -1.1005762161332028e-15 1.0 -2.9970334752800446e-14
  outer loop
    vertex 140.5190302595171 -150.62129558815522 9.220451145129665
    vertex 135.21202952709643 -150.62129558815533 10.92045095439185
    vertex 142.11202952709516 -150.6212955881552 9.220451145129665
  endloop
endfacet
facet normal -1.1005762161332028e-15 1.0 -2.9970334752800446e-14
  outer loop
    vertex 142.11202952709516 -150.6212955881552 9.220451145129665
    vertex 135.21202952709643 -150.62129558815533 10.92045095439185
    vertex 142.7690652688543 -150.62129558815516 9.2850985407246
  endloop
endfacet
facet normal -1.1005762161332028e-15 1.0 -2.9970334752800446e-14
  outer loop
    vertex 142.7690652688543 -150.62129558815516 9.2850985407246
    vertex 135.21202952709643 -150.62129558815533 10.92045095439185
    vertex 142.22246344974315 -150.62129558815508 10.895335575137999
  endloop
endfacet
facet normal -1.1005762161332028e-15 1.0 -2.9970334752800446e-14
  outer loop
    vertex 142.22246344974315 -150.62129558815508 10.895335575137999
    vertex 135.21202952709643 -150.62129558815533 10.92045095439185
    vertex 141.47035977629412 -150.62129558815502 12.420450954391827
  endloop
endfacet
facet normal -1.1005762161332028e-15 1.0 -2.9970334752800446e-14
  outer loop
    vertex 142.76906526885432 -150.62129558815542 2.555803368059077
    vertex 142.11202952709516 -150.6212955881552 2.6204507636599774
    vertex 143.10081272495597 -150.6212955881554 4.223610455531175
  endloop
endfacet
facet normal -1.1005762161332028e-15 1.0 -2.9970334752800446e-14
  outer loop
    vertex 142.11202952709516 -150.6212955881552 2.6204507636599774
    vertex 142.76906526885432 -150.62129558815542 2.555803368059077
    vertex 140.5190302595171 -150.6212955881554 2.6204507636599774
  endloop
endfacet
facet normal -1.1005762161332028e-15 1.0 -2.9970334752800446e-14
  outer loop
    vertex 143.10081272495597 -150.6212955881554 4.223610455531175
    vertex 142.11202952709516 -150.6212955881552 2.6204507636599774
    vertex 142.11202952709516 -150.6212955881552 9.220451145129665
  endloop
endfacet
facet normal -1.1005762161332028e-15 1.0 -2.9970334752800446e-14
  outer loop
    vertex 143.10081272495597 -150.6212955881554 4.223610455531175
    vertex 142.11202952709516 -150.6212955881552 9.220451145129665
    vertex 143.2120295270964 -150.6212955881553 5.920450954391842
  endloop
endfacet
facet normal -1.1005762161332028e-15 1.0 -2.9970334752800446e-14
  outer loop
    vertex 143.2120295270964 -150.6212955881553 5.920450954391842
    vertex 142.11202952709516 -150.6212955881552 9.220451145129665
    vertex 143.10081272495597 -150.62129558815522 7.617291453252508
  endloop
endfacet
facet normal -1.1005762161332028e-15 1.0 -2.9970334752800446e-14
  outer loop
    vertex 143.10081272495597 -150.62129558815522 7.617291453252508
    vertex 142.11202952709516 -150.6212955881552 9.220451145129665
    vertex 142.7690652688543 -150.62129558815516 9.2850985407246
  endloop
endfacet
facet normal -1.1005762161332028e-15 1.0 -2.9970334752800446e-14
  outer loop
    vertex 141.47035977629412 -150.62129558815556 -0.5795490456081502
    vertex 135.21202952709643 -150.62129558815533 0.9204509543918484
    vertex 142.22246344974315 -150.62129558815553 0.9455663336456818
  endloop
endfacet
facet normal -1.1005762161332028e-15 1.0 -2.9970334752800446e-14
  outer loop
    vertex 135.21202952709643 -150.62129558815533 0.9204509543918484
    vertex 141.47035977629412 -150.62129558815556 -0.5795490456081502
    vertex 125.21202952709643 -150.62129558815533 0.9204509543918484
  endloop
endfacet
facet normal -1.1005762161332028e-15 1.0 -2.9970334752800446e-14
  outer loop
    vertex 142.22246344974315 -150.62129558815553 0.9455663336456818
    vertex 135.21202952709643 -150.62129558815533 0.9204509543918484
    vertex 135.21202952709643 -150.62129558815533 2.920450954391828
  endloop
endfacet
facet normal -1.1005762161332028e-15 1.0 -2.9970334752800446e-14
  outer loop
    vertex 142.22246344974315 -150.62129558815553 0.9455663336456818
    vertex 135.21202952709643 -150.62129558815533 2.920450954391828
    vertex 140.5190302595171 -150.6212955881554 2.6204507636599774
  endloop
endfacet
facet normal -1.1005762161332028e-15 1.0 -2.9970334752800446e-14
  outer loop
    vertex 142.22246344974315 -150.62129558815553 0.9455663336456818
    vertex 140.5190302595171 -150.6212955881554 2.6204507636599774
    vertex 142.76906526885432 -150.62129558815542 2.555803368059077
  endloop
endfacet
facet normal -1.1005762161332028e-15 1.0 -2.9970334752800446e-14
  outer loop
    vertex 140.5190302595171 -150.6212955881554 2.6204507636599774
    vertex 135.21202952709643 -150.62129558815533 2.920450954391828
    vertex 136.21202952709643 -150.62129558815533 2.920450954391828
  endloop
endfacet
facet normal -1.1005762161332028e-15 1.0 -2.9970334752800446e-14
  outer loop
    vertex 140.5190302595171 -150.6212955881554 2.6204507636599774
    vertex 136.21202952709643 -150.62129558815533 2.920450954391828
    vertex 140.5190302595171 -150.62129558815522 9.220451145129665
  endloop
endfacet
facet normal -1.1005762161332028e-15 1.0 -2.9970334752800446e-14
  outer loop
    vertex 140.5190302595171 -150.62129558815522 9.220451145129665
    vertex 136.21202952709643 -150.62129558815533 2.920450954391828
    vertex 136.21202952709643 -150.62129558815533 8.920450954391871
  endloop
endfacet
facet normal -1.1005762161332028e-15 1.0 -2.9970334752800446e-14
  outer loop
    vertex 125.21202952709643 -150.62129558815533 0.9204509543918484
    vertex 121.21202952709646 -150.62129558815545 2.920450954391777
    vertex 125.21202952709643 -150.62129558815533 10.92045095439185
  endloop
endfacet
facet normal -1.1005762161332028e-15 1.0 -2.9970334752800446e-14
  outer loop
    vertex 121.21202952709646 -150.62129558815545 2.920450954391777
    vertex 125.21202952709643 -150.62129558815533 0.9204509543918484
    vertex 109.21202952709646 -150.62129558815545 2.920450954391777
  endloop
endfacet
facet normal -1.1005762161332028e-15 1.0 -2.9970334752800446e-14
  outer loop
    vertex 125.21202952709643 -150.62129558815533 10.92045095439185
    vertex 121.21202952709646 -150.62129558815545 2.920450954391777
    vertex 121.21202952709646 -150.62129558815545 8.920450954391825
  endloop
endfacet
facet normal -1.0 6.015928496096541e-14 -1.590245437872628e-14
  outer loop
    vertex 102.21202952709615 -153.62129558815508 13.67045095438863
    vertex 102.21202952709642 -152.12129558815556 -1.8295490456113683
    vertex 102.21202952709652 -153.62129558815602 -1.8295490456112986
  endloop
endfacet
facet normal -1.0 6.015928496096541e-14 -1.590245437872628e-14
  outer loop
    vertex 102.21202952709642 -152.12129558815556 -1.8295490456113683
    vertex 102.21202952709615 -153.62129558815508 13.67045095438863
    vertex 102.21202952709642 -152.12129558815556 13.67045095438863
  endloop
endfacet
facet normal -1.0 -9.023892744153613e-15 2.4519317134751747e-31
  outer loop
    vertex 121.21202952709646 -150.62129558815545 8.920450954391825
    vertex 121.2120295270965 -155.62129558815528 2.920450954391825
    vertex 121.2120295270965 -155.62129558815528 8.920450954391871
  endloop
endfacet
facet normal -1.0 -9.023892744153613e-15 2.4519317134751747e-31
  outer loop
    vertex 121.2120295270965 -155.62129558815528 2.920450954391825
    vertex 121.21202952709646 -150.62129558815545 8.920450954391825
    vertex 121.21202952709646 -150.62129558815545 2.920450954391777
  endloop
endfacet
facet normal -9.651153192469271e-15 5.80409442275864e-15 1.0
  outer loop
    vertex 121.2120295270963 -156.6212955881553 13.670450954388862
    vertex 113.21202952709638 -152.32129558815572 13.670450954388777
    vertex 103.71202952709588 -156.621295588155 13.670450954388699
  endloop
endfacet
facet normal -9.651153192469271e-15 5.80409442275864e-15 1.0
  outer loop
    vertex 113.21202952709638 -152.32129558815572 13.670450954388777
    vertex 121.2120295270963 -156.6212955881553 13.670450954388862
    vertex 121.21202952709636 -152.32129558815575 13.6704509543888
  endloop
endfacet
facet normal -9.651153192469271e-15 5.80409442275864e-15 1.0
  outer loop
    vertex 103.71202952709588 -156.621295588155 13.670450954388699
    vertex 102.21202952709642 -152.12129558815556 13.67045095438863
    vertex 102.21202952709615 -153.62129558815508 13.67045095438863
  endloop
endfacet
facet normal -9.651153192469271e-15 5.80409442275864e-15 1.0
  outer loop
    vertex 102.21202952709642 -152.12129558815556 13.67045095438863
    vertex 103.71202952709588 -156.621295588155 13.670450954388699
    vertex 102.21202952709649 -150.62129558815542 13.67045095438863
  endloop
endfacet
facet normal -9.651153192469271e-15 5.80409442275864e-15 1.0
  outer loop
    vertex 102.21202952709649 -150.62129558815542 13.67045095438863
    vertex 103.71202952709588 -156.621295588155 13.670450954388699
    vertex 113.21202952709638 -150.62129558815528 13.670450954388787
  endloop
endfacet
facet normal -9.651153192469271e-15 5.80409442275864e-15 1.0
  outer loop
    vertex 113.21202952709638 -150.62129558815528 13.670450954388787
    vertex 103.71202952709588 -156.621295588155 13.670450954388699
    vertex 113.21202952709638 -152.32129558815572 13.670450954388777
  endloop
endfacet
facet normal 0.5555702330196092 3.827577101556831e-14 0.8314696123025407
  outer loop
    vertex 138.1259281042097 -156.62129558815494 16.234044378178055
    vertex 136.71202952709643 -150.6212955881548 17.178781203589523
    vertex 136.71202952709635 -156.6212955881549 17.178781203589704
  endloop
endfacet
facet normal 0.5555702330196092 3.827577101556831e-14 0.8314696123025407
  outer loop
    vertex 136.71202952709643 -150.6212955881548 17.178781203589523
    vertex 138.1259281042097 -156.62129558815494 16.234044378178055
    vertex 138.12592810420978 -150.62129558815485 16.234044378177874
  endloop
endfacet
facet normal -1.0 0.0 0.0
  outer loop
    vertex 100.71202952709633 -150.62129558815553 15.170450954388718
    vertex 100.71202952709633 -152.12129558815556 -3.329549045613922
    vertex 100.71202952709633 -152.12129558815556 15.170450954388718
  endloop
endfacet
facet normal -1.0 0.0 0.0
  outer loop
    vertex 100.71202952709633 -152.12129558815556 -3.329549045613922
    vertex 100.71202952709633 -150.62129558815553 15.170450954388718
    vertex 100.71202952709633 -150.62129558815553 -3.329549045613922
  endloop
endfacet
facet normal 1.0 0.0 0.0
  outer loop
    vertex 119.21202952709643 -153.12129558815553 2.920450954391825
    vertex 119.21202952709643 -156.62129558815536 8.92045095439196
    vertex 119.21202952709643 -156.62129558815553 2.9204509543919124
  endloop
endfacet
facet normal 1.0 0.0 0.0
  outer loop
    vertex 119.21202952709643 -156.62129558815536 8.92045095439196
    vertex 119.21202952709643 -153.12129558815553 2.920450954391825
    vertex 119.21202952709643 -153.12129558815545 8.920450954391871
  endloop
endfacet
facet normal 0.8314696123025523 -1.675986310365316e-14 -0.5555702330195917
  outer loop
    vertex 140.5256229508825 -150.62129558815562 -1.9934476227215197
    vertex 141.47035977629412 -156.62129558815604 -0.5795490456079042
    vertex 140.5256229508825 -156.6212955881561 -1.993447622721273
  endloop
endfacet
facet normal 0.8314696123025523 -1.675986310365316e-14 -0.5555702330195917
  outer loop
    vertex 141.47035977629412 -156.62129558815604 -0.5795490456079042
    vertex 140.5256229508825 -150.62129558815562 -1.9934476227215197
    vertex 141.47035977629412 -150.62129558815556 -0.5795490456081502
  endloop
endfacet
facet normal 0.0 -1.0 0.0
  outer loop
    vertex 102.21202952709642 -152.12129558815556 -1.8295490456113683
    vertex 100.71202952709633 -152.12129558815556 -3.329549045613922
    vertex 102.21202952709636 -152.12129558815556 -3.329549045613922
  endloop
endfacet
facet normal 0.0 -1.0 0.0
  outer loop
    vertex 100.71202952709633 -152.12129558815556 -3.329549045613922
    vertex 102.21202952709642 -152.12129558815556 -1.8295490456113683
    vertex 100.71202952709633 -152.12129558815556 15.170450954388718
  endloop
endfacet
facet normal 0.0 -1.0 0.0
  outer loop
    vertex 100.71202952709633 -152.12129558815556 15.170450954388718
    vertex 102.21202952709642 -152.12129558815556 -1.8295490456113683
    vertex 102.21202952709642 -152.12129558815556 13.67045095438863
  endloop
endfacet
facet normal 0.0 -1.0 0.0
  outer loop
    vertex 100.71202952709633 -152.12129558815556 15.170450954388718
    vertex 102.21202952709642 -152.12129558815556 13.67045095438863
    vertex 102.21202952709636 -152.12129558815556 15.170450954388718
  endloop
endfacet
facet normal 0.997858923238604 1.0004319683740327e-14 0.06540312923013698
  outer loop
    vertex 143.2120295270964 -150.6212955881553 5.920450954391842
    vertex 143.10081272495592 -156.62129558815525 7.617291453252726
    vertex 143.21202952709638 -156.62129558815533 5.920450954392059
  endloop
endfacet
facet normal 0.997858923238604 1.0004319683740327e-14 0.06540312923013698
  outer loop
    vertex 143.10081272495592 -156.62129558815525 7.617291453252726
    vertex 143.2120295270964 -150.6212955881553 5.920450954391842
    vertex 143.10081272495597 -150.62129558815522 7.617291453252508
  endloop
endfacet
facet normal 0.9807852804032285 1.5214044387900656e-14 0.1950903220161385
  outer loop
    vertex 143.10081272495597 -150.62129558815522 7.617291453252508
    vertex 142.76906526885426 -156.62129558815516 9.28509854072482
    vertex 143.10081272495592 -156.62129558815525 7.617291453252726
  endloop
endfacet
facet normal 0.9807852804032285 1.5214044387900656e-14 0.1950903220161385
  outer loop
    vertex 142.76906526885426 -156.62129558815516 9.28509854072482
    vertex 143.10081272495597 -150.62129558815522 7.617291453252508
    vertex 142.7690652688543 -150.62129558815516 9.2850985407246
  endloop
endfacet
facet normal 0.6593458151000651 3.576071537545684e-14 0.7518398074789809
  outer loop
    vertex 139.40441768252145 -156.621295588155 15.112839109817118
    vertex 138.12592810420978 -150.62129558815485 16.234044378177874
    vertex 138.1259281042097 -156.62129558815494 16.234044378178055
  endloop
endfacet
facet normal 0.6593458151000651 3.576071537545684e-14 0.7518398074789809
  outer loop
    vertex 138.12592810420978 -150.62129558815485 16.234044378177874
    vertex 139.40441768252145 -156.621295588155 15.112839109817118
    vertex 139.40441768252154 -150.62129558815488 15.112839109816937
  endloop
endfacet
facet normal 5.020030693974084e-28 -3.8941303774456363e-14 -1.0
  outer loop
    vertex 135.2120295270965 -155.62129558815508 8.920450954391871
    vertex 121.2120295270965 -156.62129558815528 8.92045095439191
    vertex 121.2120295270965 -155.62129558815528 8.920450954391871
  endloop
endfacet
facet normal 5.020030693974084e-28 -3.8941303774456363e-14 -1.0
  outer loop
    vertex 121.2120295270965 -156.62129558815528 8.92045095439191
    vertex 135.2120295270965 -155.62129558815508 8.920450954391871
    vertex 135.2120295270965 -156.62129558815508 8.92045095439191
  endloop
endfacet
facet normal -1.0 -0.0 -0.0
  outer loop
    vertex 135.21202952709643 -150.62129558815533 2.920450954391828
    vertex 135.21202952709643 -151.62129558815533 0.9204509543918484
    vertex 135.21202952709643 -151.62129558815533 2.920450954391828
  endloop
endfacet
facet normal -1.0 -0.0 -0.0
  outer loop
    vertex 135.21202952709643 -151.62129558815533 0.9204509543918484
    vertex 135.21202952709643 -150.62129558815533 2.920450954391828
    vertex 135.21202952709643 -150.62129558815533 0.9204509543918484
  endloop
endfacet
facet normal 1.0 0.0 0.0
  outer loop
    vertex 125.21202952709643 -150.62129558815533 0.9204509543918484
    vertex 125.21202952709643 -151.62129558815533 10.92045095439185
    vertex 125.21202952709643 -151.62129558815533 0.9204509543918484
  endloop
endfacet
facet normal 1.0 0.0 0.0
  outer loop
    vertex 125.21202952709643 -151.62129558815533 10.92045095439185
    vertex 125.21202952709643 -150.62129558815533 0.9204509543918484
    vertex 125.21202952709643 -150.62129558815533 10.92045095439185
  endloop
endfacet
facet normal -6.899205408610373e-16 -1.4789752953600858e-14 -1.0
  outer loop
    vertex 109.21202952709646 -150.6212955881553 8.920450954391825
    vertex 119.21202952709643 -153.12129558815545 8.920450954391871
    vertex 109.21202952709643 -153.12129558815536 8.920450954391871
  endloop
endfacet
facet normal -6.899205408610373e-16 -1.4789752953600858e-14 -1.0
  outer loop
    vertex 119.21202952709643 -153.12129558815545 8.920450954391871
    vertex 109.21202952709646 -150.6212955881553 8.920450954391825
    vertex 121.21202952709646 -150.62129558815545 8.920450954391825
  endloop
endfacet
facet normal -6.899205408610373e-16 -1.4789752953600858e-14 -1.0
  outer loop
    vertex 119.21202952709643 -153.12129558815545 8.920450954391871
    vertex 121.21202952709646 -150.62129558815545 8.920450954391825
    vertex 119.21202952709643 -156.62129558815536 8.92045095439196
  endloop
endfacet
facet normal -6.899205408610373e-16 -1.4789752953600858e-14 -1.0
  outer loop
    vertex 119.21202952709643 -156.62129558815536 8.92045095439196
    vertex 121.21202952709646 -150.62129558815545 8.920450954391825
    vertex 121.2120295270965 -156.62129558815528 8.92045095439191
  endloop
endfacet
facet normal -6.899205408610373e-16 -1.4789752953600858e-14 -1.0
  outer loop
    vertex 121.2120295270965 -156.62129558815528 8.92045095439191
    vertex 121.21202952709646 -150.62129558815545 8.920450954391825
    vertex 121.2120295270965 -155.62129558815528 8.920450954391871
  endloop
endfacet
facet normal 0.0 0.0 1.0
  outer loop
    vertex 135.21202952709643 -151.62129558815533 0.9204509543918484
    vertex 125.21202952709643 -150.62129558815533 0.9204509543918484
    vertex 125.21202952709643 -151.62129558815533 0.9204509543918484
  endloop
endfacet
facet normal 0.0 0.0 1.0
  outer loop
    vertex 125.21202952709643 -150.62129558815533 0.9204509543918484
    vertex 135.21202952709643 -151.62129558815533 0.9204509543918484
    vertex 135.21202952709643 -150.62129558815533 0.9204509543918484
  endloop
endfacet
facet normal -1.0 0.0 0.0
  outer loop
    vertex 113.21202952709638 -151.8962955937436 15.120450957182745
    vertex 113.21202952709638 -152.32129558815572 13.670450954388777
    vertex 113.21202952709638 -152.3212955923467 14.757950954388777
  endloop
endfacet
facet normal -1.0 0.0 0.0
  outer loop
    vertex 113.21202952709638 -152.32129558815572 13.670450954388777
    vertex 113.21202952709638 -151.8962955937436 15.120450957182745
    vertex 113.21202952709638 -150.62129558815528 13.670450954388787
  endloop
endfacet
facet normal -1.0 0.0 0.0
  outer loop
    vertex 113.21202952709638 -150.62129558815528 13.670450954388787
    vertex 113.21202952709638 -151.8962955937436 15.120450957182745
    vertex 113.21202952709638 -150.62129559374324 15.120450965564649
  endloop
endfacet
facet normal 0.997858923238604 4.623418296070918e-15 -0.06540312923013698
  outer loop
    vertex 143.10081272495597 -150.6212955881554 4.223610455531175
    vertex 143.21202952709638 -156.62129558815533 5.920450954392059
    vertex 143.10081272495592 -156.6212955881554 4.223610455531389
  endloop
endfacet
facet normal 0.997858923238604 4.623418296070918e-15 -0.06540312923013698
  outer loop
    vertex 143.21202952709638 -156.62129558815533 5.920450954392059
    vertex 143.10081272495597 -150.6212955881554 4.223610455531175
    vertex 143.2120295270964 -150.6212955881553 5.920450954391842
  endloop
endfacet
facet normal -1.3978467441327377e-13 -1.6152862286237815e-13 -1.0
  outer loop
    vertex 102.21202952709649 -150.62129558815542 -1.8295490456113683
    vertex 102.21202952709652 -153.62129558815602 -1.8295490456112986
    vertex 102.21202952709642 -152.12129558815556 -1.8295490456113683
  endloop
endfacet
facet normal -1.3978467441327377e-13 -1.6152862286237815e-13 -1.0
  outer loop
    vertex 102.21202952709652 -153.62129558815602 -1.8295490456112986
    vertex 102.21202952709649 -150.62129558815542 -1.8295490456113683
    vertex 113.21202952709616 -150.6212955881547 -1.8295490456137358
  endloop
endfacet
facet normal -1.3978467441327377e-13 -1.6152862286237815e-13 -1.0
  outer loop
    vertex 102.21202952709652 -153.62129558815602 -1.8295490456112986
    vertex 113.21202952709616 -150.6212955881547 -1.8295490456137358
    vertex 103.71202952709646 -156.62129558815636 -1.8295490456110879
  endloop
endfacet
facet normal -1.3978467441327377e-13 -1.6152862286237815e-13 -1.0
  outer loop
    vertex 103.71202952709646 -156.62129558815636 -1.8295490456110879
    vertex 113.21202952709616 -150.6212955881547 -1.8295490456137358
    vertex 113.2120295270962 -152.3212955881547 -1.8295490456135877
  endloop
endfacet
facet normal -1.3978467441327377e-13 -1.6152862286237815e-13 -1.0
  outer loop
    vertex 103.71202952709646 -156.62129558815636 -1.8295490456110879
    vertex 113.2120295270962 -152.3212955881547 -1.8295490456135877
    vertex 121.21202952709646 -156.62129558815514 -1.8295490456130152
  endloop
endfacet
facet normal -1.3978467441327377e-13 -1.6152862286237815e-13 -1.0
  outer loop
    vertex 121.21202952709646 -156.62129558815514 -1.8295490456130152
    vertex 113.2120295270962 -152.3212955881547 -1.8295490456135877
    vertex 121.21202952709643 -152.3212955881548 -1.8295490456136667
  endloop
endfacet
facet normal 1.2891275348790411e-14 -1.0 -9.466917812730431e-31
  outer loop
    vertex 135.2120295270965 -155.62129558815508 2.920450954391828
    vertex 121.2120295270965 -155.62129558815528 8.920450954391871
    vertex 121.2120295270965 -155.62129558815528 2.920450954391825
  endloop
endfacet
facet normal 1.2891275348790411e-14 -1.0 -9.466917812730431e-31
  outer loop
    vertex 121.2120295270965 -155.62129558815528 8.920450954391871
    vertex 135.2120295270965 -155.62129558815508 2.920450954391828
    vertex 135.2120295270965 -155.62129558815508 8.920450954391871
  endloop
endfacet
facet normal 0.4422886902189989 -3.3652352719497855e-14 -0.8968727415326895
  outer loop
    vertex 136.71202952709643 -150.62129558815576 -5.337879294805856
    vertex 136.22197175094328 -156.62129558815624 -5.579549045606612
    vertex 136.22197175094328 -150.6212955881558 -5.579549045606858
  endloop
endfacet
facet normal 0.4422886902189989 -3.3652352719497855e-14 -0.8968727415326895
  outer loop
    vertex 136.22197175094328 -156.62129558815624 -5.579549045606612
    vertex 136.71202952709643 -150.62129558815576 -5.337879294805856
    vertex 136.71202952709643 -156.62129558815624 -5.33787929480561
  endloop
endfacet
facet normal 0.7518398074789763 -2.1612470796394756e-14 -0.6593458151000702
  outer loop
    vertex 139.40441768252157 -150.6212955881557 -3.2719372010332677
    vertex 140.5256229508825 -156.6212955881561 -1.993447622721273
    vertex 139.40441768252157 -156.62129558815616 -3.2719372010330217
  endloop
endfacet
facet normal 0.7518398074789763 -2.1612470796394756e-14 -0.6593458151000702
  outer loop
    vertex 140.5256229508825 -156.6212955881561 -1.993447622721273
    vertex 139.40441768252157 -150.6212955881557 -3.2719372010332677
    vertex 140.5256229508825 -150.62129558815562 -1.9934476227215197
  endloop
endfacet
facet normal 0.7518398074789748 3.263378398052762e-14 0.6593458151000718
  outer loop
    vertex 140.52562295088248 -150.621295588155 13.834349531505193
    vertex 139.40441768252145 -156.621295588155 15.112839109817118
    vertex 140.5256229508824 -156.62129558815505 13.834349531505374
  endloop
endfacet
facet normal 0.7518398074789748 3.263378398052762e-14 0.6593458151000718
  outer loop
    vertex 139.40441768252145 -156.621295588155 15.112839109817118
    vertex 140.52562295088248 -150.621295588155 13.834349531505193
    vertex 139.40441768252154 -150.62129558815488 15.112839109816937
  endloop
endfacet
facet normal 0.8314696123025468 2.894847949389715e-14 0.5555702330196
  outer loop
    vertex 141.47035977629412 -150.62129558815502 12.420450954391827
    vertex 140.5256229508824 -156.62129558815505 13.834349531505374
    vertex 141.47035977629403 -156.6212955881551 12.420450954391999
  endloop
endfacet
facet normal 0.8314696123025468 2.894847949389715e-14 0.5555702330196
  outer loop
    vertex 140.5256229508824 -156.62129558815505 13.834349531505374
    vertex 141.47035977629412 -150.62129558815502 12.420450954391827
    vertex 140.52562295088248 -150.621295588155 13.834349531505193
  endloop
endfacet
facet normal 9.023892744153167e-15 1.0 -1.8047785488306545e-14
  outer loop
    vertex 109.21202952709643 -153.12129558815536 8.920450954391871
    vertex 119.21202952709643 -153.12129558815553 2.920450954391825
    vertex 109.21202952709643 -153.12129558815545 2.920450954391825
  endloop
endfacet
facet normal 9.023892744153167e-15 1.0 -1.8047785488306545e-14
  outer loop
    vertex 119.21202952709643 -153.12129558815553 2.920450954391825
    vertex 109.21202952709643 -153.12129558815536 8.920450954391871
    vertex 119.21202952709643 -153.12129558815545 8.920450954391871
  endloop
endfacet
facet normal 0.9469301294951047 -1.787226603828473e-14 -0.3214394653031644
  outer loop
    vertex 142.22246344974315 -154.14641096740962 0.9455663336458058
    vertex 142.76906526885426 -156.62129558815548 2.555803368059294
    vertex 142.72311931558744 -156.6212955881557 2.420450954391899
  endloop
endfacet
facet normal 0.9469301294951047 -1.787226603828473e-14 -0.3214394653031644
  outer loop
    vertex 142.76906526885426 -156.62129558815548 2.555803368059294
    vertex 142.22246344974315 -154.14641096740962 0.9455663336458058
    vertex 142.76906526885432 -150.62129558815542 2.555803368059077
  endloop
endfacet
facet normal 0.9469301294951047 -1.787226603828473e-14 -0.3214394653031644
  outer loop
    vertex 142.76906526885432 -150.62129558815542 2.555803368059077
    vertex 142.22246344974315 -154.14641096740962 0.9455663336458058
    vertex 142.22246344974315 -150.62129558815553 0.9455663336456818
  endloop
endfacet
facet normal 1.0 -9.023892744153167e-15 2.2389131877025e-28
  outer loop
    vertex 109.21202952709646 -150.62129558815545 2.920450954391777
    vertex 109.21202952709643 -153.12129558815536 8.920450954391871
    vertex 109.21202952709643 -153.12129558815545 2.920450954391825
  endloop
endfacet
facet normal 1.0 -9.023892744153167e-15 2.2389131877025e-28
  outer loop
    vertex 109.21202952709643 -153.12129558815536 8.920450954391871
    vertex 109.21202952709646 -150.62129558815545 2.920450954391777
    vertex 109.21202952709646 -150.6212955881553 8.920450954391825
  endloop
endfacet
facet normal 1.310408052364104e-13 -4.113642153676823e-14 -1.0
  outer loop
    vertex 136.22197175094328 -150.6212955881558 -5.579549045606858
    vertex 121.2120295270965 -156.62129558815647 -5.579549045611547
    vertex 121.21202952709643 -150.62129558815576 -5.579549045611793
  endloop
endfacet
facet normal 1.310408052364104e-13 -4.113642153676823e-14 -1.0
  outer loop
    vertex 121.2120295270965 -156.62129558815647 -5.579549045611547
    vertex 136.22197175094328 -150.6212955881558 -5.579549045606858
    vertex 136.22197175094328 -156.62129558815624 -5.579549045606612
  endloop
endfacet
facet normal 0.9469301294951078 4.9788696404416284e-15 0.32143946530315515
  outer loop
    vertex 142.76906526885426 -156.62129558815516 9.28509854072482
    vertex 142.22246344974315 -150.62129558815508 10.895335575137999
    vertex 142.22246344974312 -156.6212955881552 10.895335575138205
  endloop
endfacet
facet normal 0.9469301294951078 4.9788696404416284e-15 0.32143946530315515
  outer loop
    vertex 142.22246344974315 -150.62129558815508 10.895335575137999
    vertex 142.76906526885426 -156.62129558815516 9.28509854072482
    vertex 142.7690652688543 -150.62129558815516 9.2850985407246
  endloop
endfacet
facet normal 0.9469301294951126 -1.2591085218548977e-15 -0.3214394653031412
  outer loop
    vertex 142.22246344974315 -154.14641096740962 0.9455663336458058
    vertex 142.72311931558744 -156.6212955881557 2.420450954391899
    vertex 142.22246344974315 -156.62129558815815 0.9455663336458819
  endloop
endfacet
facet normal 0.8968727415326859 -1.713114077051159e-14 -0.4422886902190064
  outer loop
    vertex 141.47035977629412 -156.62129558815604 -0.5795490456079042
    vertex 142.22246344974315 -154.14641096740962 0.9455663336458058
    vertex 142.22246344974315 -156.62129558815815 0.9455663336458819
  endloop
endfacet
facet normal 0.8968727415326859 -1.713114077051159e-14 -0.4422886902190064
  outer loop
    vertex 142.22246344974315 -154.14641096740962 0.9455663336458058
    vertex 141.47035977629412 -156.62129558815604 -0.5795490456079042
    vertex 141.47035977629412 -150.62129558815556 -0.5795490456081502
  endloop
endfacet
facet normal 0.8968727415326859 -1.713114077051159e-14 -0.4422886902190064
  outer loop
    vertex 142.22246344974315 -154.14641096740962 0.9455663336458058
    vertex 141.47035977629412 -150.62129558815556 -0.5795490456081502
    vertex 142.22246344974315 -150.62129558815553 0.9455663336456818
  endloop
endfacet
facet normal 0.8968727415326782 2.4572336627591878e-15 0.4422886902190216
  outer loop
    vertex 142.22246344974315 -150.62129558815508 10.895335575137999
    vertex 141.47035977629403 -156.6212955881551 12.420450954391999
    vertex 142.22246344974312 -156.6212955881552 10.895335575138205
  endloop
endfacet
facet normal 0.8968727415326782 2.4572336627591878e-15 0.4422886902190216
  outer loop
    vertex 141.47035977629403 -156.6212955881551 12.420450954391999
    vertex 142.22246344974315 -150.62129558815508 10.895335575137999
    vertex 141.47035977629412 -150.62129558815502 12.420450954391827
  endloop
endfacet
facet normal -1.9935563780299084e-28 1.4120276235545389e-14 1.0
  outer loop
    vertex 142.11202952709516 -150.6212955881552 9.220451145129665
    vertex 140.54617032639953 -150.4151463135134 9.220451145129662
    vertex 140.5190302595171 -150.62129558815522 9.220451145129665
  endloop
endfacet
facet normal -1.9935563780299084e-28 1.4120276235545389e-14 1.0
  outer loop
    vertex 140.54617032639953 -150.4151463135134 9.220451145129662
    vertex 142.11202952709516 -150.6212955881552 9.220451145129665
    vertex 140.62574097633984 -150.22304577126067 9.22045114512966
  endloop
endfacet
facet normal -1.9935563780299084e-28 1.4120276235545389e-14 1.0
  outer loop
    vertex 140.62574097633984 -150.22304577126067 9.22045114512966
    vertex 142.11202952709516 -150.6212955881552 9.220451145129665
    vertex 140.7523196010413 -150.05808529589035 9.220451145129656
  endloop
endfacet
facet normal -1.9935563780299084e-28 1.4120276235545389e-14 1.0
  outer loop
    vertex 140.7523196010413 -150.05808529589035 9.220451145129656
    vertex 142.11202952709516 -150.6212955881552 9.220451145129665
    vertex 140.91728007641163 -149.93150667118888 9.220451145129655
  endloop
endfacet
facet normal -1.9935563780299084e-28 1.4120276235545389e-14 1.0
  outer loop
    vertex 140.91728007641163 -149.93150667118888 9.220451145129655
    vertex 142.11202952709516 -150.6212955881552 9.220451145129665
    vertex 141.10938061866435 -149.85193602124858 9.220451145129655
  endloop
endfacet
facet normal -1.9935563780299084e-28 1.4120276235545389e-14 1.0
  outer loop
    vertex 141.10938061866435 -149.85193602124858 9.220451145129655
    vertex 142.11202952709516 -150.6212955881552 9.220451145129665
    vertex 141.31552989330615 -149.82479595436618 9.220451145129655
  endloop
endfacet
facet normal -1.9935563780299084e-28 1.4120276235545389e-14 1.0
  outer loop
    vertex 141.31552989330615 -149.82479595436618 9.220451145129655
    vertex 142.11202952709516 -150.6212955881552 9.220451145129665
    vertex 141.52167916794792 -149.85193602124858 9.220451145129655
  endloop
endfacet
facet normal -1.9935563780299084e-28 1.4120276235545389e-14 1.0
  outer loop
    vertex 141.52167916794792 -149.85193602124858 9.220451145129655
    vertex 142.11202952709516 -150.6212955881552 9.220451145129665
    vertex 141.71377971020064 -149.93150667118888 9.220451145129655
  endloop
endfacet
facet normal -1.9935563780299084e-28 1.4120276235545389e-14 1.0
  outer loop
    vertex 141.71377971020064 -149.93150667118888 9.220451145129655
    vertex 142.11202952709516 -150.6212955881552 9.220451145129665
    vertex 141.87874018557096 -150.05808529589035 9.220451145129656
  endloop
endfacet
facet normal -1.9935563780299084e-28 1.4120276235545389e-14 1.0
  outer loop
    vertex 141.87874018557096 -150.05808529589035 9.220451145129656
    vertex 142.11202952709516 -150.6212955881552 9.220451145129665
    vertex 142.00531881027243 -150.22304577126067 9.22045114512966
  endloop
endfacet
facet normal -1.9935563780299084e-28 1.4120276235545389e-14 1.0
  outer loop
    vertex 142.00531881027243 -150.22304577126067 9.22045114512966
    vertex 142.11202952709516 -150.6212955881552 9.220451145129665
    vertex 142.08488946021276 -150.4151463135134 9.220451145129662
  endloop
endfacet
facet normal -1.2152749234314968e-16 -1.4603533249049857e-14 -1.0
  outer loop
    vertex 140.54617032639953 -150.41514631351353 2.6204507636599748
    vertex 142.11202952709516 -150.6212955881552 2.6204507636599774
    vertex 140.5190302595171 -150.6212955881554 2.6204507636599774
  endloop
endfacet
facet normal -1.2152749234314968e-16 -1.4603533249049857e-14 -1.0
  outer loop
    vertex 142.11202952709516 -150.6212955881552 2.6204507636599774
    vertex 140.54617032639953 -150.41514631351353 2.6204507636599748
    vertex 140.62574097633984 -150.22304577126081 2.620450763659972
  endloop
endfacet
facet normal -1.2152749234314968e-16 -1.4603533249049857e-14 -1.0
  outer loop
    vertex 142.11202952709516 -150.6212955881552 2.6204507636599774
    vertex 140.62574097633984 -150.22304577126081 2.620450763659972
    vertex 140.7523196010413 -150.0580852958905 2.620450763659969
  endloop
endfacet
facet normal -1.2152749234314968e-16 -1.4603533249049857e-14 -1.0
  outer loop
    vertex 142.11202952709516 -150.6212955881552 2.6204507636599774
    vertex 140.7523196010413 -150.0580852958905 2.620450763659969
    vertex 140.91728007641163 -149.93150667118903 2.6204507636599677
  endloop
endfacet
facet normal -1.2152749234314968e-16 -1.4603533249049857e-14 -1.0
  outer loop
    vertex 142.11202952709516 -150.6212955881552 2.6204507636599774
    vertex 140.91728007641163 -149.93150667118903 2.6204507636599677
    vertex 141.10938061866435 -149.85193602124872 2.6204507636599663
  endloop
endfacet
facet normal -1.2152749234314968e-16 -1.4603533249049857e-14 -1.0
  outer loop
    vertex 142.11202952709516 -150.6212955881552 2.6204507636599774
    vertex 141.10938061866435 -149.85193602124872 2.6204507636599663
    vertex 141.31552989330615 -149.8247959543663 2.6204507636599663
  endloop
endfacet
facet normal -1.2152749234314968e-16 -1.4603533249049857e-14 -1.0
  outer loop
    vertex 142.11202952709516 -150.6212955881552 2.6204507636599774
    vertex 141.31552989330615 -149.8247959543663 2.6204507636599663
    vertex 141.52167916794792 -149.8519360212487 2.6204507636599663
  endloop
endfacet
facet normal -1.2152749234314968e-16 -1.4603533249049857e-14 -1.0
  outer loop
    vertex 142.11202952709516 -150.6212955881552 2.6204507636599774
    vertex 141.52167916794792 -149.8519360212487 2.6204507636599663
    vertex 141.71377971020064 -149.931506671189 2.6204507636599663
  endloop
endfacet
facet normal -1.2152749234314968e-16 -1.4603533249049857e-14 -1.0
  outer loop
    vertex 142.11202952709516 -150.6212955881552 2.6204507636599774
    vertex 141.71377971020064 -149.931506671189 2.6204507636599663
    vertex 141.87874018557096 -150.05808529589046 2.620450763659969
  endloop
endfacet
facet normal -1.2152749234314968e-16 -1.4603533249049857e-14 -1.0
  outer loop
    vertex 142.11202952709516 -150.6212955881552 2.6204507636599774
    vertex 141.87874018557096 -150.05808529589046 2.620450763659969
    vertex 142.00531881027243 -150.2230457712608 2.620450763659972
  endloop
endfacet
facet normal -1.2152749234314968e-16 -1.4603533249049857e-14 -1.0
  outer loop
    vertex 142.11202952709516 -150.6212955881552 2.6204507636599774
    vertex 142.00531881027243 -150.2230457712608 2.620450763659972
    vertex 142.08488946021276 -150.4151463135135 2.6204507636599748
  endloop
endfacet
facet normal -0.13052619221997946 0.9914448613738199 -2.0333341755402337e-14
  outer loop
    vertex 141.10938061866435 -149.85193602124858 9.220451145129655
    vertex 141.31552989330615 -149.8247959543663 2.6204507636599663
    vertex 141.10938061866435 -149.85193602124872 2.6204507636599663
  endloop
endfacet
facet normal -0.13052619221997946 0.9914448613738199 -2.0333341755402337e-14
  outer loop
    vertex 141.31552989330615 -149.8247959543663 2.6204507636599663
    vertex 141.10938061866435 -149.85193602124858 9.220451145129655
    vertex 141.31552989330615 -149.82479595436618 9.220451145129655
  endloop
endfacet
facet normal -0.9914448613738096 0.130526192220058 -3.1233257829739076e-15
  outer loop
    vertex 140.5190302595171 -150.62129558815522 9.220451145129665
    vertex 140.54617032639953 -150.41514631351353 2.6204507636599748
    vertex 140.5190302595171 -150.6212955881554 2.6204507636599774
  endloop
endfacet
facet normal -0.9914448613738096 0.130526192220058 -3.1233257829739076e-15
  outer loop
    vertex 140.54617032639953 -150.41514631351353 2.6204507636599748
    vertex 140.5190302595171 -150.62129558815522 9.220451145129665
    vertex 140.54617032639953 -150.4151463135134 9.220451145129662
  endloop
endfacet
facet normal -0.9238795325112708 0.38268343236512875 -5.30517689117187e-15
  outer loop
    vertex 140.54617032639953 -150.4151463135134 9.220451145129662
    vertex 140.62574097633984 -150.22304577126081 2.620450763659972
    vertex 140.54617032639953 -150.41514631351353 2.6204507636599748
  endloop
endfacet
facet normal -0.9238795325112708 0.38268343236512875 -5.30517689117187e-15
  outer loop
    vertex 140.62574097633984 -150.22304577126081 2.620450763659972
    vertex 140.54617032639953 -150.4151463135134 9.220451145129662
    vertex 140.62574097633984 -150.22304577126067 9.22045114512966
  endloop
endfacet
facet normal -0.7933533402912835 0.6087614290086579 -8.556108557798088e-15
  outer loop
    vertex 140.62574097633984 -150.22304577126067 9.22045114512966
    vertex 140.7523196010413 -150.0580852958905 2.620450763659969
    vertex 140.62574097633984 -150.22304577126081 2.620450763659972
  endloop
endfacet
facet normal -0.7933533402912835 0.6087614290086579 -8.556108557798088e-15
  outer loop
    vertex 140.7523196010413 -150.0580852958905 2.620450763659969
    vertex 140.62574097633984 -150.22304577126067 9.22045114512966
    vertex 140.7523196010413 -150.05808529589035 9.220451145129656
  endloop
endfacet
facet normal -0.6087614290086579 0.7933533402912835 -1.1223955565851306e-14
  outer loop
    vertex 140.7523196010413 -150.0580852958905 2.620450763659969
    vertex 140.91728007641163 -149.93150667118888 9.220451145129655
    vertex 140.91728007641163 -149.93150667118903 2.6204507636599677
  endloop
endfacet
facet normal -0.6087614290086579 0.7933533402912835 -1.1223955565851306e-14
  outer loop
    vertex 140.91728007641163 -149.93150667118888 9.220451145129655
    vertex 140.7523196010413 -150.0580852958905 2.620450763659969
    vertex 140.7523196010413 -150.05808529589035 9.220451145129656
  endloop
endfacet
facet normal -0.38268343236512875 0.9238795325112708 -1.3126908550552838e-14
  outer loop
    vertex 140.91728007641163 -149.93150667118903 2.6204507636599677
    vertex 141.10938061866435 -149.85193602124858 9.220451145129655
    vertex 141.10938061866435 -149.85193602124872 2.6204507636599663
  endloop
endfacet
facet normal -0.38268343236512875 0.9238795325112708 -1.3126908550552838e-14
  outer loop
    vertex 141.10938061866435 -149.85193602124858 9.220451145129655
    vertex 140.91728007641163 -149.93150667118903 2.6204507636599677
    vertex 140.91728007641163 -149.93150667118888 9.220451145129655
  endloop
endfacet
facet normal 0.9914448613738153 0.13052619222001455 -1.1151658672134584e-15
  outer loop
    vertex 142.08488946021276 -150.4151463135135 2.6204507636599748
    vertex 142.11202952709516 -150.6212955881552 9.220451145129665
    vertex 142.11202952709516 -150.6212955881552 2.6204507636599774
  endloop
endfacet
facet normal 0.9914448613738153 0.13052619222001455 -1.1151658672134584e-15
  outer loop
    vertex 142.11202952709516 -150.6212955881552 9.220451145129665
    vertex 142.08488946021276 -150.4151463135135 2.6204507636599748
    vertex 142.08488946021276 -150.4151463135134 9.220451145129662
  endloop
endfacet
facet normal 0.1305261922199261 0.9914448613738269 -1.8638985521472595e-14
  outer loop
    vertex 141.31552989330615 -149.82479595436618 9.220451145129655
    vertex 141.52167916794792 -149.8519360212487 2.6204507636599663
    vertex 141.31552989330615 -149.8247959543663 2.6204507636599663
  endloop
endfacet
facet normal 0.1305261922199261 0.9914448613738269 -1.8638985521472595e-14
  outer loop
    vertex 141.52167916794792 -149.8519360212487 2.6204507636599663
    vertex 141.31552989330615 -149.82479595436618 9.220451145129655
    vertex 141.52167916794792 -149.85193602124858 9.220451145129655
  endloop
endfacet
facet normal 0.38268343236512875 0.9238795325112708 -1.3126908550552644e-14
  outer loop
    vertex 141.52167916794792 -149.85193602124858 9.220451145129655
    vertex 141.71377971020064 -149.931506671189 2.6204507636599663
    vertex 141.52167916794792 -149.8519360212487 2.6204507636599663
  endloop
endfacet
facet normal 0.38268343236512875 0.9238795325112708 -1.3126908550552644e-14
  outer loop
    vertex 141.71377971020064 -149.931506671189 2.6204507636599663
    vertex 141.52167916794792 -149.85193602124858 9.220451145129655
    vertex 141.71377971020064 -149.93150667118888 9.220451145129655
  endloop
endfacet
facet normal 0.6087614290086579 0.7933533402912835 -1.122395556585105e-14
  outer loop
    vertex 141.71377971020064 -149.93150667118888 9.220451145129655
    vertex 141.87874018557096 -150.05808529589046 2.620450763659969
    vertex 141.71377971020064 -149.931506671189 2.6204507636599663
  endloop
endfacet
facet normal 0.6087614290086579 0.7933533402912835 -1.122395556585105e-14
  outer loop
    vertex 141.87874018557096 -150.05808529589046 2.620450763659969
    vertex 141.71377971020064 -149.93150667118888 9.220451145129655
    vertex 141.87874018557096 -150.05808529589035 9.220451145129656
  endloop
endfacet
facet normal 0.7933533402912835 0.6087614290086579 -8.556108557797791e-15
  outer loop
    vertex 141.87874018557096 -150.05808529589046 2.620450763659969
    vertex 142.00531881027243 -150.22304577126067 9.22045114512966
    vertex 142.00531881027243 -150.2230457712608 2.620450763659972
  endloop
endfacet
facet normal 0.7933533402912835 0.6087614290086579 -8.556108557797791e-15
  outer loop
    vertex 142.00531881027243 -150.22304577126067 9.22045114512966
    vertex 141.87874018557096 -150.05808529589046 2.620450763659969
    vertex 141.87874018557096 -150.05808529589035 9.220451145129656
  endloop
endfacet
facet normal 0.9238795325112708 0.38268343236512875 -5.305176891171552e-15
  outer loop
    vertex 142.00531881027243 -150.2230457712608 2.620450763659972
    vertex 142.08488946021276 -150.4151463135134 9.220451145129662
    vertex 142.08488946021276 -150.4151463135135 2.6204507636599748
  endloop
endfacet
facet normal 0.9238795325112708 0.38268343236512875 -5.305176891171552e-15
  outer loop
    vertex 142.08488946021276 -150.4151463135134 9.220451145129662
    vertex 142.00531881027243 -150.2230457712608 2.620450763659972
    vertex 142.00531881027243 -150.22304577126067 9.22045114512966
  endloop
endfacet
facet normal -3.242961454928084e-14 -1.0 5.289868160365277e-13
  outer loop
    vertex 121.21202952709643 -152.3212955881548 -1.8295490456136667
    vertex 113.21202952709613 -152.32129558815512 -2.9170490456135187
    vertex 121.2120295270963 -152.32129558815552 -2.9170490456140175
  endloop
endfacet
facet normal -3.242961454928084e-14 -1.0 5.289868160365277e-13
  outer loop
    vertex 113.21202952709613 -152.32129558815512 -2.9170490456135187
    vertex 121.21202952709643 -152.3212955881548 -1.8295490456136667
    vertex 113.2120295270962 -152.3212955881547 -1.8295490456135877
  endloop
endfacet
facet normal -1.0 -2.3513498128193718e-15 2.687836079138504e-14
  outer loop
    vertex 113.2120295270962 -152.3212955881547 -1.8295490456135877
    vertex 113.21202952709613 -151.8962955881553 -3.2795490456135483
    vertex 113.21202952709613 -152.32129558815512 -2.9170490456135187
  endloop
endfacet
facet normal -1.0 -2.3513498128193718e-15 2.687836079138504e-14
  outer loop
    vertex 113.21202952709613 -151.8962955881553 -3.2795490456135483
    vertex 113.2120295270962 -152.3212955881547 -1.8295490456135877
    vertex 113.21202952709616 -150.6212955881547 -1.8295490456137358
  endloop
endfacet
facet normal -1.0 -2.3513498128193718e-15 2.687836079138504e-14
  outer loop
    vertex 113.21202952709613 -151.8962955881553 -3.2795490456135483
    vertex 113.21202952709616 -150.6212955881547 -1.8295490456137358
    vertex 113.21202952709616 -150.62129558815553 -3.2795490456137064
  endloop
endfacet
facet normal -3.591051067619356e-14 4.0640693424975e-14 -1.0
  outer loop
    vertex 113.21202952709616 -150.62129558815553 -3.2795490456137064
    vertex 121.2120295270963 -151.8962955881557 -3.2795490456140453
    vertex 113.21202952709613 -151.8962955881553 -3.2795490456135483
  endloop
endfacet
facet normal -3.591051067619356e-14 4.0640693424975e-14 -1.0
  outer loop
    vertex 121.2120295270963 -151.8962955881557 -3.2795490456140453
    vertex 113.21202952709616 -150.62129558815553 -3.2795490456137064
    vertex 121.21202952709639 -150.62129558815565 -3.2795490456137837
  endloop
endfacet
facet normal -1.0 1.0647233724698707e-14 -2.1332711800525877e-14
  outer loop
    vertex 121.21202952709628 -150.621295588155 17.420450954388368
    vertex 121.2120295270963 -156.6212955881553 13.670450954388862
    vertex 121.21202952709625 -156.6212955881553 17.42045095438855
  endloop
endfacet
facet normal -1.0 1.0647233724698707e-14 -2.1332711800525877e-14
  outer loop
    vertex 121.2120295270963 -156.6212955881553 13.670450954388862
    vertex 121.21202952709628 -150.621295588155 17.420450954388368
    vertex 121.21202952709635 -152.3212955923467 14.757950954388777
  endloop
endfacet
facet normal -1.0 1.0647233724698707e-14 -2.1332711800525877e-14
  outer loop
    vertex 121.21202952709635 -152.3212955923467 14.757950954388777
    vertex 121.21202952709628 -150.621295588155 17.420450954388368
    vertex 121.21202952709635 -151.8962955937436 15.120450957182745
  endloop
endfacet
facet normal -1.0 1.0647233724698707e-14 -2.1332711800525877e-14
  outer loop
    vertex 121.21202952709635 -151.8962955937436 15.120450957182745
    vertex 121.21202952709628 -150.621295588155 17.420450954388368
    vertex 121.21202952709636 -150.62129559374327 15.12045096556467
  endloop
endfacet
facet normal -1.0 1.0647233724698707e-14 -2.1332711800525877e-14
  outer loop
    vertex 121.21202952709636 -152.32129558815575 13.6704509543888
    vertex 121.2120295270963 -156.6212955881553 13.670450954388862
    vertex 121.21202952709635 -152.3212955923467 14.757950954388777
  endloop
endfacet
facet normal -1.4099832505811695e-15 -6.574049627111107e-09 1.0
  outer loop
    vertex 121.21202952709635 -151.8962955937436 15.120450957182745
    vertex 113.21202952709638 -150.62129559374324 15.120450965564649
    vertex 113.21202952709638 -151.8962955937436 15.120450957182745
  endloop
endfacet
facet normal -1.4099832505811695e-15 -6.574049627111107e-09 1.0
  outer loop
    vertex 113.21202952709638 -150.62129559374324 15.120450965564649
    vertex 121.21202952709635 -151.8962955937436 15.120450957182745
    vertex 121.21202952709636 -150.62129559374327 15.12045096556467
  endloop
endfacet
facet normal 0.0 -0.6489466102128223 0.7608339484363768
  outer loop
    vertex 121.21202952709635 -152.3212955923467 14.757950954388777
    vertex 113.21202952709638 -151.8962955937436 15.120450957182745
    vertex 113.21202952709638 -152.3212955923467 14.757950954388777
  endloop
endfacet
facet normal 0.0 -0.6489466102128223 0.7608339484363768
  outer loop
    vertex 113.21202952709638 -151.8962955937436 15.120450957182745
    vertex 121.21202952709635 -152.3212955923467 14.757950954388777
    vertex 121.21202952709635 -151.8962955937436 15.120450957182745
  endloop
endfacet
facet normal -7.846443319407765e-14 -0.6489466060829446 -0.7608339519589196
  outer loop
    vertex 121.2120295270963 -151.8962955881557 -3.2795490456140453
    vertex 113.21202952709613 -152.32129558815512 -2.9170490456135187
    vertex 113.21202952709613 -151.8962955881553 -3.2795490456135483
  endloop
endfacet
facet normal -7.846443319407765e-14 -0.6489466060829446 -0.7608339519589196
  outer loop
    vertex 113.21202952709613 -152.32129558815512 -2.9170490456135187
    vertex 121.2120295270963 -151.8962955881557 -3.2795490456140453
    vertex 121.2120295270963 -152.32129558815552 -2.9170490456140175
  endloop
endfacet
facet normal 4.499056138460795e-16 -1.0 6.37019954868646e-14
  outer loop
    vertex 136.2120295270964 -156.62129558815533 8.920450954391967
    vertex 121.2120295270965 -156.62129558815528 8.92045095439191
    vertex 135.2120295270965 -156.62129558815508 8.92045095439191
  endloop
endfacet
facet normal 4.499056138460795e-16 -1.0 6.37019954868646e-14
  outer loop
    vertex 121.2120295270965 -156.62129558815528 8.92045095439191
    vertex 136.2120295270964 -156.62129558815533 8.920450954391967
    vertex 119.21202952709643 -156.62129558815536 8.92045095439196
  endloop
endfacet
facet normal 4.499056138460795e-16 -1.0 6.37019954868646e-14
  outer loop
    vertex 142.76906526885426 -156.62129558815548 2.555803368059294
    vertex 136.2120295270964 -156.62129558815533 2.920450954391921
    vertex 119.21202952709643 -156.62129558815553 2.9204509543919124
  endloop
endfacet
facet normal 4.499056138460795e-16 -1.0 6.37019954868646e-14
  outer loop
    vertex 136.2120295270964 -156.62129558815533 2.920450954391921
    vertex 142.76906526885426 -156.62129558815548 2.555803368059294
    vertex 143.10081272495592 -156.6212955881554 4.223610455531389
  endloop
endfacet
facet normal 4.499056138460795e-16 -1.0 6.37019954868646e-14
  outer loop
    vertex 136.2120295270964 -156.62129558815533 2.920450954391921
    vertex 143.10081272495592 -156.6212955881554 4.223610455531389
    vertex 136.2120295270964 -156.62129558815533 8.920450954391967
  endloop
endfacet
facet normal 4.499056138460795e-16 -1.0 6.37019954868646e-14
  outer loop
    vertex 136.2120295270964 -156.62129558815533 8.920450954391967
    vertex 143.10081272495592 -156.6212955881554 4.223610455531389
    vertex 143.21202952709638 -156.62129558815533 5.920450954392059
  endloop
endfacet
facet normal 4.499056138460795e-16 -1.0 6.37019954868646e-14
  outer loop
    vertex 136.2120295270964 -156.62129558815533 8.920450954391967
    vertex 143.21202952709638 -156.62129558815533 5.920450954392059
    vertex 143.10081272495592 -156.62129558815525 7.617291453252726
  endloop
endfacet
facet normal 4.499056138460795e-16 -1.0 6.37019954868646e-14
  outer loop
    vertex 136.2120295270964 -156.62129558815533 8.920450954391967
    vertex 143.10081272495592 -156.62129558815525 7.617291453252726
    vertex 142.76906526885426 -156.62129558815516 9.28509854072482
  endloop
endfacet
facet normal 4.499056138460795e-16 -1.0 6.37019954868646e-14
  outer loop
    vertex 136.22197175094328 -156.62129558815624 -5.579549045606612
    vertex 121.21202952709646 -156.62129558815514 -1.8295490456130152
    vertex 121.2120295270965 -156.62129558815647 -5.579549045611547
  endloop
endfacet
facet normal 4.499056138460795e-16 -1.0 6.37019954868646e-14
  outer loop
    vertex 121.21202952709646 -156.62129558815514 -1.8295490456130152
    vertex 136.22197175094328 -156.62129558815624 -5.579549045606612
    vertex 136.71202952709643 -156.62129558815624 -5.33787929480561
  endloop
endfacet
facet normal 4.499056138460795e-16 -1.0 6.37019954868646e-14
  outer loop
    vertex 121.21202952709646 -156.62129558815514 -1.8295490456130152
    vertex 136.71202952709643 -156.62129558815624 -5.33787929480561
    vertex 138.12592810420983 -156.62129558815622 -4.393142469393963
  endloop
endfacet
facet normal 4.499056138460795e-16 -1.0 6.37019954868646e-14
  outer loop
    vertex 121.21202952709646 -156.62129558815514 -1.8295490456130152
    vertex 138.12592810420983 -156.62129558815622 -4.393142469393963
    vertex 139.40441768252157 -156.62129558815616 -3.2719372010330217
  endloop
endfacet
facet normal 4.499056138460795e-16 -1.0 6.37019954868646e-14
  outer loop
    vertex 121.21202952709646 -156.62129558815514 -1.8295490456130152
    vertex 139.40441768252157 -156.62129558815616 -3.2719372010330217
    vertex 140.5256229508825 -156.6212955881561 -1.993447622721273
  endloop
endfacet
facet normal 4.499056138460795e-16 -1.0 6.37019954868646e-14
  outer loop
    vertex 121.21202952709646 -156.62129558815514 -1.8295490456130152
    vertex 140.5256229508825 -156.6212955881561 -1.993447622721273
    vertex 141.47035977629412 -156.62129558815604 -0.5795490456079042
  endloop
endfacet
facet normal 4.499056138460795e-16 -1.0 6.37019954868646e-14
  outer loop
    vertex 121.21202952709646 -156.62129558815514 -1.8295490456130152
    vertex 141.47035977629412 -156.62129558815604 -0.5795490456079042
    vertex 103.71202952709646 -156.62129558815636 -1.8295490456110879
  endloop
endfacet
facet normal 4.499056138460795e-16 -1.0 6.37019954868646e-14
  outer loop
    vertex 103.71202952709646 -156.62129558815636 -1.8295490456110879
    vertex 141.47035977629412 -156.62129558815604 -0.5795490456079042
    vertex 119.21202952709643 -156.62129558815553 2.9204509543919124
  endloop
endfacet
facet normal 4.499056138460795e-16 -1.0 6.37019954868646e-14
  outer loop
    vertex 103.71202952709646 -156.62129558815636 -1.8295490456110879
    vertex 119.21202952709643 -156.62129558815553 2.9204509543919124
    vertex 103.71202952709588 -156.621295588155 13.670450954388699
  endloop
endfacet
facet normal 4.499056138460795e-16 -1.0 6.37019954868646e-14
  outer loop
    vertex 119.21202952709643 -156.62129558815553 2.9204509543919124
    vertex 141.47035977629412 -156.62129558815604 -0.5795490456079042
    vertex 142.22246344974315 -156.62129558815815 0.9455663336458819
  endloop
endfacet
facet normal 4.499056138460795e-16 -1.0 6.37019954868646e-14
  outer loop
    vertex 119.21202952709643 -156.62129558815553 2.9204509543919124
    vertex 142.22246344974315 -156.62129558815815 0.9455663336458819
    vertex 142.72311931558744 -156.6212955881557 2.420450954391899
  endloop
endfacet
facet normal 4.499056138460795e-16 -1.0 6.37019954868646e-14
  outer loop
    vertex 119.21202952709643 -156.62129558815553 2.9204509543919124
    vertex 142.72311931558744 -156.6212955881557 2.420450954391899
    vertex 142.76906526885426 -156.62129558815548 2.555803368059294
  endloop
endfacet
facet normal 4.499056138460795e-16 -1.0 6.37019954868646e-14
  outer loop
    vertex 103.71202952709588 -156.621295588155 13.670450954388699
    vertex 119.21202952709643 -156.62129558815553 2.9204509543919124
    vertex 119.21202952709643 -156.62129558815536 8.92045095439196
  endloop
endfacet
facet normal 4.499056138460795e-16 -1.0 6.37019954868646e-14
  outer loop
    vertex 103.71202952709588 -156.621295588155 13.670450954388699
    vertex 119.21202952709643 -156.62129558815536 8.92045095439196
    vertex 136.2120295270964 -156.62129558815533 8.920450954391967
  endloop
endfacet
facet normal 4.499056138460795e-16 -1.0 6.37019954868646e-14
  outer loop
    vertex 103.71202952709588 -156.621295588155 13.670450954388699
    vertex 136.2120295270964 -156.62129558815533 8.920450954391967
    vertex 142.76906526885426 -156.62129558815516 9.28509854072482
  endloop
endfacet
facet normal 4.499056138460795e-16 -1.0 6.37019954868646e-14
  outer loop
    vertex 103.71202952709588 -156.621295588155 13.670450954388699
    vertex 142.76906526885426 -156.62129558815516 9.28509854072482
    vertex 142.22246344974312 -156.6212955881552 10.895335575138205
  endloop
endfacet
facet normal 4.499056138460795e-16 -1.0 6.37019954868646e-14
  outer loop
    vertex 103.71202952709588 -156.621295588155 13.670450954388699
    vertex 142.22246344974312 -156.6212955881552 10.895335575138205
    vertex 141.47035977629403 -156.6212955881551 12.420450954391999
  endloop
endfacet
facet normal 4.499056138460795e-16 -1.0 6.37019954868646e-14
  outer loop
    vertex 103.71202952709588 -156.621295588155 13.670450954388699
    vertex 141.47035977629403 -156.6212955881551 12.420450954391999
    vertex 121.2120295270963 -156.6212955881553 13.670450954388862
  endloop
endfacet
facet normal 4.499056138460795e-16 -1.0 6.37019954868646e-14
  outer loop
    vertex 121.2120295270963 -156.6212955881553 13.670450954388862
    vertex 141.47035977629403 -156.6212955881551 12.420450954391999
    vertex 140.5256229508824 -156.62129558815505 13.834349531505374
  endloop
endfacet
facet normal 4.499056138460795e-16 -1.0 6.37019954868646e-14
  outer loop
    vertex 121.2120295270963 -156.6212955881553 13.670450954388862
    vertex 140.5256229508824 -156.62129558815505 13.834349531505374
    vertex 121.21202952709625 -156.6212955881553 17.42045095438855
  endloop
endfacet
facet normal 4.499056138460795e-16 -1.0 6.37019954868646e-14
  outer loop
    vertex 121.21202952709625 -156.6212955881553 17.42045095438855
    vertex 140.5256229508824 -156.62129558815505 13.834349531505374
    vertex 139.40441768252145 -156.621295588155 15.112839109817118
  endloop
endfacet
facet normal 4.499056138460795e-16 -1.0 6.37019954868646e-14
  outer loop
    vertex 121.21202952709625 -156.6212955881553 17.42045095438855
    vertex 139.40441768252145 -156.621295588155 15.112839109817118
    vertex 138.1259281042097 -156.62129558815494 16.234044378178055
  endloop
endfacet
facet normal 4.499056138460795e-16 -1.0 6.37019954868646e-14
  outer loop
    vertex 121.21202952709625 -156.6212955881553 17.42045095438855
    vertex 138.1259281042097 -156.62129558815494 16.234044378178055
    vertex 136.71202952709635 -156.6212955881549 17.178781203589704
  endloop
endfacet
facet normal 4.499056138460795e-16 -1.0 6.37019954868646e-14
  outer loop
    vertex 121.21202952709625 -156.6212955881553 17.42045095438855
    vertex 136.71202952709635 -156.6212955881549 17.178781203589704
    vertex 136.2219717509463 -156.6212955881549 17.42045095438917
  endloop
endfacet
endsolid BGlassesWholeDesign
